<?xml version="1.0" standalone="no"?>
<!DOCTYPE svg PUBLIC "-//W3C//DTD SVG 20010904//EN"
 "http://www.w3.org/TR/2001/REC-SVG-20010904/DTD/svg10.dtd">
<svg version="1.0" xmlns="http://www.w3.org/2000/svg"
 width="720.000000pt" height="720.000000pt" viewBox="0 0 720.000000 720.000000"
 preserveAspectRatio="xMidYMid meet">
<metadata>
Created by potrace 1.14, written by Peter Selinger 2001-2017
</metadata>
<g transform="translate(0.000000,720.000000) scale(0.100000,-0.100000)"
fill="#000000" stroke="none">
<path d="M3350 6868 c-159 -29 -251 -59 -365 -116 -62 -30 -171 -97 -185 -112
-3 -3 -27 -23 -54 -45 -45 -35 -85 -75 -154 -154 -36 -40 -106 -149 -142 -221
-79 -156 -118 -306 -126 -480 -2 -47 -6 -91 -9 -97 -2 -7 -1 -13 3 -13 4 0 7
-19 7 -43 0 -34 9 -94 29 -192 1 -5 5 -16 9 -22 5 -7 6 -13 3 -13 -15 0 70
-205 118 -285 78 -131 258 -326 339 -370 20 -11 37 -24 37 -28 0 -6 -5 -5 -12
0 -18 13 -133 58 -198 77 -82 24 -155 36 -254 42 -49 3 -93 7 -98 10 -4 3 -8
2 -8 -3 0 -4 -19 -8 -42 -8 -175 2 -410 -77 -603 -203 -90 -59 -258 -227 -317
-317 -43 -67 -107 -180 -108 -190 0 -3 -7 -22 -15 -42 -9 -20 -18 -48 -22 -62
-3 -14 -8 -30 -12 -36 -6 -11 -6 -13 -16 -59 -3 -16 -8 -32 -10 -36 -10 -17
-20 -140 -20 -255 1 -127 19 -279 37 -301 5 -7 8 -16 7 -20 -1 -5 1 -18 5 -29
65 -177 105 -255 192 -370 28 -38 84 -100 122 -138 57 -55 66 -67 48 -67 -12
0 -26 4 -32 9 -15 15 -205 42 -299 43 -48 0 -200 -16 -269 -28 -24 -4 -85 -23
-111 -34 -11 -4 -40 -16 -64 -25 -68 -25 -191 -88 -191 -97 0 -4 -5 -8 -12 -8
-43 0 -279 -226 -350 -336 -50 -76 -123 -223 -143 -284 -51 -162 -64 -249 -61
-415 5 -199 53 -392 135 -535 15 -25 33 -57 40 -72 8 -15 22 -37 33 -47 10
-11 18 -23 18 -25 0 -22 244 -266 266 -266 2 0 14 -8 25 -19 29 -27 202 -115
286 -144 114 -41 226 -60 374 -62 157 -3 263 12 394 56 124 42 285 126 352
184 6 5 28 24 48 40 157 128 293 328 360 530 29 86 36 109 39 140 1 11 4 25 7
30 3 6 7 30 8 55 3 48 19 79 19 36 -1 -29 21 -155 30 -176 3 -8 7 -19 7 -25 2
-11 5 -20 42 -120 71 -190 231 -397 403 -522 69 -50 180 -115 180 -105 0 4 4
2 8 -4 11 -18 189 -81 282 -100 98 -19 323 -26 420 -12 88 13 266 70 354 114
78 39 183 108 232 151 18 15 42 37 55 49 125 110 255 312 314 489 33 97 34
101 48 198 6 42 13 77 17 77 3 0 11 -35 17 -77 11 -74 20 -118 23 -118 1 0 3
-10 6 -23 7 -38 66 -184 93 -232 15 -25 33 -57 40 -72 8 -15 22 -37 33 -47 10
-11 18 -23 18 -25 0 -22 244 -266 266 -266 2 0 14 -8 24 -18 37 -34 181 -107
288 -145 39 -15 74 -27 77 -27 3 0 6 0 8 -1 171 -52 491 -45 662 15 219 78
352 159 512 315 78 76 182 236 232 356 19 44 38 89 43 100 5 11 19 71 32 133
41 202 26 451 -41 635 -64 179 -150 315 -288 452 -214 215 -457 327 -760 351
-96 7 -83 7 -175 0 -106 -9 -241 -35 -285 -55 -11 -5 -38 -16 -60 -24 -185
-69 -334 -177 -493 -356 -64 -72 -176 -272 -207 -371 -22 -70 -37 -125 -40
-147 -2 -16 -4 -29 -6 -30 -4 -6 -7 -25 -8 -63 -1 -41 -18 -57 -19 -17 0 12
-5 49 -12 82 -6 33 -12 65 -14 72 -1 7 -5 16 -9 19 -4 4 -7 17 -7 28 0 30 -57
169 -104 251 -57 102 -109 169 -200 263 -45 45 -83 85 -85 87 -3 3 15 -2 40
-10 50 -18 208 -44 251 -41 15 1 28 -2 28 -7 0 -4 4 -6 9 -2 6 3 47 7 93 9
130 6 247 27 313 55 11 5 38 16 60 24 154 57 322 169 430 286 22 24 45 49 50
55 61 66 140 195 184 301 19 44 38 89 43 100 10 23 13 37 38 170 27 143 21
342 -15 495 -2 8 -4 16 -5 18 -3 2 -4 6 -14 47 -12 45 -57 154 -86 205 -14 25
-32 57 -39 72 -8 15 -22 37 -33 47 -10 11 -18 23 -18 25 0 20 -189 212 -260
263 -130 96 -309 175 -465 208 -146 31 -384 26 -535 -10 -51 -12 -55 -14 -57
-15 -2 -2 -7 -3 -12 -4 -5 0 -13 -4 -17 -9 -4 -4 -15 -7 -24 -7 -9 0 -40 -11
-68 -25 -61 -29 -75 -32 -43 -7 159 121 252 222 338 363 62 102 134 285 149
379 2 14 7 41 10 60 6 33 11 109 14 205 2 64 -8 137 -33 260 -2 6 -6 16 -10
23 -5 6 -6 12 -3 12 9 0 -44 139 -81 214 -18 38 -52 97 -75 130 -51 75 -50 73
-134 168 -12 12 -43 42 -70 66 -27 23 -56 49 -65 57 -9 8 -21 15 -27 15 -5 0
-12 4 -14 9 -10 27 -223 133 -354 175 -120 39 -384 57 -504 34z m-280 -2300
c167 -65 287 -86 473 -83 161 3 275 24 403 75 43 17 86 34 94 37 8 3 -19 -21
-60 -54 -107 -85 -270 -267 -270 -301 0 -5 -4 -12 -9 -14 -12 -4 -88 -158
-107 -216 -8 -26 -18 -54 -21 -62 -3 -8 -8 -22 -10 -30 -2 -8 -5 -19 -7 -25
-3 -10 -15 -65 -21 -100 -2 -11 -4 -35 -4 -52 -2 -59 -16 -35 -28 45 -10 63
-17 101 -22 120 -1 1 -2 5 -2 10 -1 4 -13 39 -26 77 -35 95 -84 194 -140 279
-55 82 -202 235 -285 295 -32 23 -58 44 -58 48 0 3 8 -1 18 -9 9 -8 46 -26 82
-40z m460 -1110 c1 -90 71 -317 129 -418 15 -25 33 -57 40 -72 8 -15 22 -37
33 -47 10 -11 18 -23 18 -25 0 -10 34 -49 118 -135 45 -47 82 -87 82 -88 0 -6
-37 -3 -44 4 -3 4 -12 8 -19 9 -7 1 -43 9 -82 16 -38 7 -100 13 -137 13 -38 0
-68 4 -68 8 0 5 -4 5 -10 2 -5 -3 -43 -8 -85 -10 -74 -5 -261 -40 -280 -54 -5
-4 -28 -13 -50 -20 -169 -58 -364 -196 -490 -346 -16 -19 -35 -41 -40 -48 -26
-31 -86 -129 -119 -194 -66 -133 -110 -285 -120 -420 -3 -43 -12 -51 -11 -10
0 32 -29 202 -35 202 -2 0 -5 11 -13 50 -10 42 -63 163 -100 230 -66 117 -195
274 -269 329 l-23 17 25 -4 c14 -3 58 -12 99 -21 41 -9 113 -18 161 -21 49 -2
92 -5 96 -6 5 -1 11 -1 14 0 3 1 30 3 60 5 61 4 136 14 162 22 9 3 27 7 40 10
27 6 38 9 58 16 8 3 38 14 65 24 160 56 352 182 450 293 16 19 43 48 58 65
108 120 233 382 252 526 2 14 4 26 5 28 5 5 8 23 9 62 1 48 21 54 21 8z m1275
-2017 c3 -5 2 -12 -3 -15 -5 -3 -9 1 -9 9 0 17 3 19 12 6z"/>
</g>
</svg>
