<svg width="300" height="48" viewBox="0 0 300 48" fill="none" xmlns="http://www.w3.org/2000/svg">
<rect x="30.2188" width="269.781" height="48" fill="#333333"/>
<rect width="137.08" height="48" fill="#4F4F4F"/>
<path d="M18.2234 17.1566C19.9285 17.1566 21.2365 17.4814 22.1474 18.1311C23.0701 18.7691 23.5314 19.7262 23.5314 21.0023C23.5314 21.6984 23.4029 22.2958 23.146 22.7947C22.9007 23.2819 22.5387 23.6822 22.0599 23.9954C21.5927 24.297 21.0204 24.5174 20.3431 24.6566C19.6657 24.7958 18.9007 24.8655 18.0482 24.8655H16.6993V29.3376H15V17.4524C15.4788 17.3364 16.0102 17.261 16.5942 17.2262C17.1898 17.1798 17.7328 17.1566 18.2234 17.1566ZM18.3635 18.6357C17.6394 18.6357 17.0847 18.6531 16.6993 18.6879V23.4211H17.9781C18.562 23.4211 19.0876 23.3863 19.5547 23.3167C20.0219 23.2355 20.4131 23.1079 20.7285 22.9339C21.0555 22.7483 21.3066 22.4989 21.4818 22.1856C21.6569 21.8724 21.7445 21.4722 21.7445 20.9849C21.7445 20.5209 21.6511 20.1381 21.4642 19.8364C21.2891 19.5348 21.0438 19.297 20.7285 19.123C20.4248 18.9374 20.0686 18.8098 19.6599 18.7401C19.2511 18.6705 18.819 18.6357 18.3635 18.6357Z" fill="white"/>
<path d="M25.1676 23.2993C25.1676 22.2668 25.3194 21.3562 25.623 20.5673C25.9384 19.7784 26.3588 19.123 26.8844 18.6009C27.4216 18.0673 28.0406 17.6671 28.7413 17.4002C29.4537 17.1334 30.207 17 31.0011 17C31.7836 17 32.5194 17.1334 33.2084 17.4002C33.9092 17.6671 34.5223 18.0673 35.0479 18.6009C35.5734 19.123 35.988 19.7784 36.2917 20.5673C36.607 21.3562 36.7647 22.2668 36.7647 23.2993C36.7647 24.3318 36.607 25.2425 36.2917 26.0314C35.988 26.8202 35.5734 27.4815 35.0479 28.0151C34.5223 28.5372 33.9092 28.9316 33.2084 29.1984C32.5194 29.4652 31.7836 29.5987 31.0011 29.5987C30.207 29.5987 29.4537 29.4652 28.7413 29.1984C28.0406 28.9316 27.4216 28.5372 26.8844 28.0151C26.3588 27.4815 25.9384 26.8202 25.623 26.0314C25.3194 25.2425 25.1676 24.3318 25.1676 23.2993ZM26.9544 23.2993C26.9544 24.0302 27.0479 24.6972 27.2347 25.3005C27.4216 25.8921 27.6844 26.3968 28.023 26.8144C28.3734 27.2321 28.7938 27.5569 29.2844 27.7889C29.7865 28.0093 30.3471 28.1195 30.9661 28.1195C31.5851 28.1195 32.1398 28.0093 32.6303 27.7889C33.1209 27.5569 33.5355 27.2321 33.8741 26.8144C34.2245 26.3968 34.4931 25.8921 34.68 25.3005C34.8668 24.6972 34.9603 24.0302 34.9603 23.2993C34.9603 22.5685 34.8668 21.9072 34.68 21.3156C34.4931 20.7123 34.2245 20.2019 33.8741 19.7842C33.5355 19.3666 33.1209 19.0476 32.6303 18.8272C32.1398 18.5951 31.5851 18.4791 30.9661 18.4791C30.3471 18.4791 29.7865 18.5951 29.2844 18.8272C28.7938 19.0476 28.3734 19.3666 28.023 19.7842C27.6844 20.2019 27.4216 20.7123 27.2347 21.3156C27.0479 21.9072 26.9544 22.5685 26.9544 23.2993Z" fill="white"/>
<path d="M45.6586 21.1589C45.1681 22.7135 44.6717 24.152 44.1695 25.4745C43.6673 26.797 43.1652 28.0847 42.663 29.3376H40.9637C40.3447 27.5627 39.7958 25.6891 39.317 23.717C38.8498 21.7448 38.4119 19.5986 38.0031 17.2784H39.79C39.9535 18.1833 40.1228 19.0882 40.298 19.9931C40.4732 20.8979 40.6542 21.7796 40.8411 22.6381C41.0279 23.4849 41.2148 24.297 41.4016 25.0743C41.5885 25.8515 41.7812 26.5708 41.9798 27.2321C42.4469 26.014 42.9433 24.6798 43.4688 23.2297C43.9944 21.768 44.4849 20.2599 44.9403 18.7053H46.4119C46.8673 20.2599 47.3637 21.768 47.9009 23.2297C48.4381 24.6798 48.9403 26.014 49.4075 27.2321C49.5944 26.5824 49.7812 25.8689 49.9681 25.0917C50.1549 24.3144 50.336 23.5023 50.5111 22.6555C50.698 21.797 50.879 20.9153 51.0542 20.0105C51.2294 19.094 51.3987 18.1833 51.5622 17.2784H53.2965C52.8761 19.5986 52.4265 21.7448 51.9476 23.717C51.4805 25.6891 50.9433 27.5627 50.336 29.3376H48.6367C48.1228 28.0847 47.6206 26.797 47.1301 25.4745C46.6396 24.152 46.1491 22.7135 45.6586 21.1589Z" fill="white"/>
<path d="M55.2886 29.3376V17.2784H62.6988V18.7227H56.9878V22.3074H62.0681V23.717H56.9878V27.8933H63.1367V29.3376H55.2886Z" fill="white"/>
<path d="M71.2352 24.2912C71.4221 24.5232 71.6557 24.8307 71.936 25.2135C72.2279 25.5847 72.5257 26.0023 72.8294 26.4664C73.133 26.9188 73.4309 27.3945 73.7228 27.8933C74.0265 28.3922 74.2834 28.8736 74.4936 29.3376H72.6367C72.4031 28.8968 72.1462 28.4502 71.8659 27.9977C71.5973 27.5453 71.3228 27.116 71.0425 26.71C70.7622 26.2924 70.4819 25.9037 70.2017 25.5441C69.933 25.1845 69.6878 24.8713 69.4659 24.6044C69.3141 24.616 69.1564 24.6218 68.9929 24.6218C68.8411 24.6218 68.6834 24.6218 68.5199 24.6218H66.9958V29.3376H65.2965V17.4524C65.7754 17.3364 66.3068 17.261 66.8907 17.2262C67.4863 17.1798 68.0294 17.1566 68.5199 17.1566C70.225 17.1566 71.5214 17.4756 72.409 18.1137C73.3082 18.7517 73.7579 19.703 73.7579 20.9675C73.7579 21.768 73.5418 22.4525 73.1097 23.0209C72.6892 23.5894 72.0644 24.0128 71.2352 24.2912ZM68.6601 18.6357C67.936 18.6357 67.3812 18.6531 66.9958 18.6879V23.2297H68.2046C68.7885 23.2297 69.3141 23.2007 69.7812 23.1427C70.2484 23.0847 70.6396 22.9745 70.9549 22.8121C71.2819 22.6497 71.533 22.4235 71.7082 22.1334C71.8834 21.8318 71.971 21.4374 71.971 20.9501C71.971 20.4977 71.8834 20.1207 71.7082 19.819C71.533 19.5174 71.2936 19.2796 70.99 19.1056C70.698 18.9316 70.3476 18.8098 69.9389 18.7401C69.5418 18.6705 69.1155 18.6357 68.6601 18.6357Z" fill="white"/>
<path d="M76.3139 29.3376V17.2784H83.7241V18.7227H78.0132V22.3074H83.0934V23.717H78.0132V27.8933H84.1621V29.3376H76.3139Z" fill="white"/>
<path d="M96.2898 23.2993C96.2898 24.3434 96.1263 25.2541 95.7992 26.0314C95.4722 26.797 95.0109 27.4351 94.4153 27.9455C93.8197 28.4444 93.1073 28.8214 92.2781 29.0766C91.4489 29.3202 90.5379 29.442 89.5452 29.442C89.0547 29.442 88.5116 29.4188 87.916 29.3724C87.3321 29.3376 86.8007 29.2622 86.3219 29.1462V17.4524C86.8007 17.3364 87.3321 17.261 87.916 17.2262C88.5116 17.1798 89.0547 17.1566 89.5452 17.1566C90.5379 17.1566 91.4489 17.2842 92.2781 17.5394C93.1073 17.7831 93.8197 18.1601 94.4153 18.6705C95.0109 19.1694 95.4722 19.8074 95.7992 20.5847C96.1263 21.3504 96.2898 22.2552 96.2898 23.2993ZM89.6854 27.9629C91.2971 27.9629 92.5 27.5569 93.2941 26.7448C94.0883 25.9211 94.4854 24.7726 94.4854 23.2993C94.4854 21.826 94.0883 20.6833 93.2941 19.8712C92.5 19.0476 91.2971 18.6357 89.6854 18.6357C89.2065 18.6357 88.8328 18.6415 88.5642 18.6531C88.3073 18.6647 88.1262 18.6763 88.0211 18.6879V27.9107C88.1262 27.9223 88.3073 27.9339 88.5642 27.9455C88.8328 27.9571 89.2065 27.9629 89.6854 27.9629Z" fill="white"/>
<path d="M106.141 29.442C105.896 29.442 105.627 29.4362 105.335 29.4246C105.055 29.413 104.769 29.3956 104.477 29.3724C104.196 29.3492 103.916 29.3202 103.636 29.2854C103.355 29.2506 103.099 29.2042 102.865 29.1462V17.4524C103.099 17.3944 103.355 17.348 103.636 17.3132C103.916 17.2784 104.196 17.2494 104.477 17.2262C104.769 17.203 105.055 17.1856 105.335 17.174C105.615 17.1624 105.878 17.1566 106.123 17.1566C106.824 17.1566 107.478 17.2088 108.085 17.3132C108.704 17.4176 109.236 17.5974 109.68 17.8527C110.135 18.0963 110.491 18.4211 110.748 18.8272C111.005 19.2332 111.134 19.732 111.134 20.3237C111.134 20.9849 110.976 21.5302 110.661 21.9594C110.345 22.377 109.925 22.6903 109.399 22.8991C110.112 23.1079 110.678 23.4385 111.099 23.891C111.519 24.3434 111.729 24.9815 111.729 25.8051C111.729 27.0116 111.28 27.9223 110.38 28.5372C109.493 29.1404 108.08 29.442 106.141 29.442ZM104.547 23.717V27.9629C104.675 27.9745 104.827 27.9861 105.002 27.9977C105.154 28.0093 105.329 28.0209 105.528 28.0325C105.738 28.0325 105.977 28.0325 106.246 28.0325C106.748 28.0325 107.221 28.0035 107.665 27.9455C108.12 27.8759 108.518 27.7599 108.856 27.5975C109.195 27.4351 109.464 27.2089 109.662 26.9188C109.872 26.6288 109.977 26.2634 109.977 25.8225C109.977 25.4281 109.901 25.0975 109.75 24.8307C109.598 24.5522 109.376 24.3318 109.084 24.1694C108.804 24.007 108.465 23.891 108.068 23.8214C107.671 23.7518 107.227 23.717 106.737 23.717H104.547ZM104.547 22.3596H106.334C106.754 22.3596 107.151 22.3306 107.525 22.2726C107.899 22.2146 108.22 22.1102 108.488 21.9594C108.769 21.8086 108.985 21.6114 109.137 21.3678C109.3 21.1241 109.382 20.8167 109.382 20.4455C109.382 20.0975 109.3 19.8074 109.137 19.5754C108.973 19.3318 108.745 19.1404 108.453 19.0012C108.173 18.8504 107.84 18.7401 107.455 18.6705C107.069 18.6009 106.661 18.5661 106.228 18.5661C105.796 18.5661 105.458 18.5719 105.212 18.5835C104.967 18.5951 104.745 18.6125 104.547 18.6357V22.3596Z" fill="white"/>
<path d="M116.568 29.3376V24.5C115.762 23.2587 115.003 22.0348 114.29 20.8283C113.578 19.6218 112.906 18.4385 112.276 17.2784H114.273C114.716 18.2297 115.213 19.1984 115.762 20.1845C116.311 21.1589 116.877 22.0986 117.461 23.0035C118.033 22.0986 118.594 21.1589 119.143 20.1845C119.692 19.1984 120.194 18.2297 120.649 17.2784H122.541C121.911 18.4385 121.239 19.6218 120.527 20.8283C119.814 22.0232 119.061 23.2355 118.267 24.4652V29.3376H116.568Z" fill="white"/>
<path d="M224.751 20.1701L221.007 28.6372L217.344 20.1701H215.331L220.001 30.7289H221.974L226.643 20.1701H224.751ZM209.253 21.6842C209.833 21.6879 210.353 21.8003 210.813 22.0193C211.273 22.2386 211.655 22.5412 211.96 22.9291C212.266 23.3181 212.477 23.7658 212.594 24.2744L205.771 25.5493V25.3495C205.777 24.6093 205.925 23.9651 206.22 23.4172C206.516 22.8696 206.925 22.4444 207.448 22.1426C207.968 21.8403 208.568 21.6879 209.253 21.6842ZM209.696 29.1747C209.095 29.1747 208.555 29.0821 208.072 28.9028C207.586 28.7264 207.17 28.4642 206.824 28.1257C206.478 27.7841 206.216 27.3691 206.032 26.8844L214.506 25.2506C214.486 24.4605 214.342 23.75 214.07 23.1123C213.798 22.478 213.426 21.9335 212.949 21.4784C212.476 21.0273 211.926 20.6782 211.295 20.4357C210.668 20.1935 209.987 20.0743 209.252 20.0709C208.474 20.0746 207.76 20.2073 207.109 20.4729C206.458 20.7349 205.892 21.1072 205.415 21.588C204.935 22.0662 204.563 22.6341 204.298 23.2879C204.036 23.9425 203.902 24.6629 203.898 25.4501C203.902 26.2403 204.039 26.9635 204.311 27.6217C204.583 28.2792 204.972 28.8466 205.475 29.3285C205.982 29.8131 206.586 30.1847 207.287 30.4472C207.988 30.7128 208.773 30.8455 209.635 30.8494C210.524 30.8455 211.326 30.6998 212.037 30.411C212.748 30.1186 213.345 29.6971 213.822 29.1354L212.775 27.9006C212.383 28.3289 211.926 28.6479 211.41 28.8604C210.893 29.0691 210.319 29.1747 209.696 29.1747ZM190.554 28.9957V18.5167H194.358C195.23 18.5203 196.019 18.6465 196.72 18.8955C197.421 19.1442 198.024 19.4999 198.522 19.9648C199.021 20.4261 199.403 20.9771 199.672 21.6181C199.937 22.2589 200.071 22.9728 200.075 23.7564C200.071 24.5401 199.937 25.254 199.672 25.8948C199.403 26.5353 199.021 27.0869 198.522 27.5481C198.024 28.013 197.421 28.3679 196.72 28.6166C196.019 28.8664 195.23 28.9926 194.358 28.9954L190.554 28.9957ZM188.541 30.7289H194.479C195.616 30.7253 196.649 30.5564 197.579 30.2211C198.508 29.8888 199.31 29.4143 199.98 28.7967C200.655 28.1785 201.172 27.4451 201.537 26.5946C201.9 25.7415 202.084 24.7953 202.087 23.7564C202.084 22.7168 201.9 21.7706 201.537 20.9175C201.171 20.067 200.655 19.3336 199.98 18.7162C199.31 18.0986 198.508 17.6235 197.579 17.2918C196.649 16.9557 195.616 16.7868 194.479 16.7832H188.541V30.7289Z" fill="white"/>
<path d="M277.328 19.9427C276.578 19.9427 275.896 20.0589 275.284 20.2914C274.672 20.5209 274.154 20.8563 273.737 21.2985V15.9141H271.216V30.7105H273.737V25.3263C273.741 24.6157 273.868 24.0203 274.117 23.5448C274.366 23.0698 274.716 22.7112 275.166 22.475C275.617 22.2354 276.141 22.1164 276.743 22.1164C277.284 22.1164 277.745 22.219 278.125 22.4253C278.505 22.6276 278.797 22.9406 278.999 23.3563C279.2 23.7716 279.305 24.2966 279.305 24.9276V30.7107H281.826V24.6089C281.823 23.8078 281.709 23.1136 281.486 22.5245C281.265 21.9362 280.949 21.4547 280.545 21.0727C280.142 20.6899 279.667 20.4047 279.12 20.2188C278.575 20.0357 277.977 19.9427 277.328 19.9427ZM268.431 28.3579C268.236 28.5073 268.021 28.617 267.779 28.6904C267.537 28.7602 267.284 28.7964 267.019 28.7964C266.541 28.7964 266.175 28.6599 265.916 28.3875C265.66 28.118 265.53 27.723 265.526 27.2008V22.136H268.411V20.1417H265.526V17.7089H263.005V27.2612C263.008 28.0456 263.153 28.7034 263.442 29.2388C263.731 29.7704 264.155 30.1727 264.706 30.4415C265.257 30.7146 265.927 30.8503 266.717 30.8503C267.022 30.8503 267.318 30.824 267.614 30.7701C267.907 30.7172 268.182 30.6373 268.442 30.5313C268.704 30.4245 268.932 30.2917 269.138 30.1326L268.431 28.3579ZM257.014 21.6175V20.0617H254.613V30.7107H257.135V25.5456C257.138 24.8219 257.265 24.213 257.518 23.7281C257.773 23.2393 258.133 22.8703 258.6 22.625C259.065 22.3789 259.619 22.256 260.262 22.256C260.352 22.256 260.443 22.2591 260.537 22.269C260.635 22.2792 260.736 22.2961 260.846 22.3157V19.9432C259.946 19.9432 259.176 20.0826 258.53 20.3615C257.884 20.6406 257.38 21.0589 257.014 21.6175ZM246.443 28.7167C245.986 28.7167 245.565 28.6368 245.179 28.4842C244.792 28.3279 244.456 28.105 244.167 27.8159C243.881 27.5235 243.659 27.1748 243.498 26.7659C243.34 26.3573 243.259 25.8951 243.256 25.3868C243.259 24.8784 243.34 24.4156 243.498 24.0076C243.659 23.5987 243.881 23.2495 244.167 22.9568C244.456 22.668 244.792 22.4456 245.179 22.2893C245.565 22.136 245.986 22.056 246.443 22.056C246.903 22.056 247.331 22.136 247.718 22.2893C248.107 22.4456 248.447 22.6677 248.736 22.9568C249.025 23.2495 249.247 23.5987 249.409 24.0076C249.567 24.4156 249.647 24.8784 249.65 25.3868C249.647 25.8951 249.567 26.3573 249.409 26.7659C249.247 27.1748 249.025 27.5235 248.736 27.8159C248.447 28.105 248.107 28.3282 247.718 28.4842C247.331 28.6368 246.903 28.7167 246.443 28.7167ZM246.443 30.8503C247.284 30.8472 248.054 30.7107 248.753 30.4449C249.456 30.179 250.061 29.8037 250.575 29.3149C251.086 28.8261 251.483 28.2516 251.766 27.5862C252.048 26.9216 252.189 26.1875 252.193 25.3865C252.189 24.5855 252.048 23.8542 251.766 23.1896C251.483 22.5242 251.086 21.9526 250.575 21.4677C250.061 20.9826 249.456 20.6071 248.753 20.3443C248.054 20.0784 247.284 19.9456 246.443 19.9427C245.613 19.9456 244.849 20.0784 244.153 20.3443C243.458 20.6073 242.853 20.9826 242.338 21.4677C241.824 21.9526 241.427 22.5245 241.144 23.1896C240.862 23.8542 240.717 24.5852 240.714 25.3865C240.717 26.1875 240.862 26.9219 241.144 27.5862C241.427 28.2516 241.824 28.8261 242.338 29.3149C242.852 29.8037 243.458 30.179 244.153 30.4449C244.849 30.7107 245.613 30.8472 246.443 30.8503ZM235.711 18.8258C236.27 18.8219 236.821 18.8888 237.359 19.0219C237.9 19.1547 238.398 19.3776 238.858 19.6833L239.685 17.5693C239.154 17.2302 238.542 16.9745 237.843 16.8052C237.144 16.6354 236.394 16.5524 235.59 16.5524C234.303 16.5555 233.196 16.7747 232.279 17.2039C231.357 17.6359 230.651 18.2539 230.16 19.0617C229.67 19.8693 229.424 20.8432 229.417 21.9761V30.7105H232.04V25.3662H238.193V23.1729H232.04V21.9761C232.04 20.9461 232.345 20.1649 232.961 19.6302C233.573 19.0951 234.491 18.8294 235.711 18.8258Z" fill="#48C5FF"/>
<path d="M174.292 21.1641H167.597V24.2008H174.292V21.1641Z" fill="#48C5FF"/>
<path d="M170.873 15.1479C172.397 15.1381 173.934 15.4833 175.209 16.335L176.348 13.4085C174.692 12.346 172.648 12 170.707 12C168.932 12.0054 167.409 12.3083 166.144 12.902C163.485 14.1544 162.202 16.6497 162.202 19.5099V27.5972C162.202 29.2657 162.327 30.7335 161.053 32.0049C160.654 32.3984 160.186 32.7006 159.649 32.9139C159.116 33.122 158.528 33.2305 157.893 33.2305C157.264 33.2305 156.684 33.122 156.151 32.9139C155.619 32.7006 155.156 32.3984 154.757 32.0049C154.363 31.6077 154.058 31.1325 153.835 30.5766C153.618 30.0198 153.507 29.3913 153.502 28.7C153.507 28.0088 153.618 27.3794 153.835 26.8234C154.058 26.2676 154.363 25.7924 154.757 25.3943C155.839 24.3292 156.972 24.2028 158.355 24.2028H160.425V21.1661H158.02C155.887 21.1661 153.805 21.7901 152.238 23.2748C151.529 23.9473 150.982 24.738 150.593 25.6588C150.204 26.5786 150.005 27.591 150 28.7C150.005 29.8091 150.204 30.8259 150.593 31.7457C150.982 32.6655 151.529 33.4618 152.238 34.1387C152.946 34.8148 153.78 35.3348 154.739 35.7024C155.697 36.0708 156.749 36.2591 157.893 36.2644C159.051 36.2591 160.112 36.0708 161.075 35.7024C162.043 35.3348 162.877 34.8148 163.586 34.1387C165.492 32.3052 165.815 30.053 165.815 27.5227C165.815 24.8482 165.815 22.1809 165.815 19.5099C165.815 18.0834 166.236 17.0022 167.085 16.2606C167.928 15.52 169.192 15.1524 170.873 15.1479Z" fill="white"/>
</svg>
