<svg width="752" height="752" viewBox="0 0 752 752" fill="none" xmlns="http://www.w3.org/2000/svg">
<path fill-rule="evenodd" clip-rule="evenodd" d="M736.624 736.625C756.541 716.708 756.541 684.416 736.624 664.5L448.125 376L736.624 87.5006C756.541 67.5838 756.541 35.2924 736.624 15.3757C716.708 -4.54109 684.416 -4.54105 664.5 15.3757L376 303.875L87.5004 15.3757C67.5837 -4.54105 35.2923 -4.54109 15.3755 15.3757C-4.54121 35.2924 -4.54117 67.5838 15.3755 87.5006L303.875 376L15.3756 664.5C-4.54115 684.416 -4.54116 716.708 15.3756 736.625C35.2923 756.541 67.5837 756.541 87.5004 736.625L376 448.125L664.5 736.625C684.416 756.541 716.708 756.541 736.624 736.625Z" fill="#262A48"/>
</svg>
