<svg width="1000" height="800" viewBox="0 0 1000 800" fill="none" xmlns="http://www.w3.org/2000/svg">
<path d="M150 100H250C277.614 100 300 122.386 300 150V650C300 677.615 277.615 700 250 700H150C122.385 700 100 677.615 100 650V150C100 122.386 122.386 100 150 100ZM350 38.1947C323.462 14.4427 288.418 0 250 0H150C67.1573 0 0 67.1573 0 150V650C0 732.845 67.1577 800 150 800H250C288.418 800 323.462 785.558 350 761.806C376.538 785.558 411.582 800 450 800H550C588.418 800 623.462 785.558 650 761.806C676.538 785.558 711.582 800 750 800H850C932.844 800 1000 732.844 1000 650V150C1000 67.1577 932.845 0 850 0H750C711.582 0 676.538 14.4425 650 38.1941C623.462 14.4425 588.418 0 550 0H450C411.582 0 376.538 14.4427 350 38.1947ZM600 150V650C600 677.616 577.616 700 550 700H450C422.385 700 400 677.615 400 650V150C400 122.386 422.386 100 450 100H550C577.615 100 600 122.385 600 150ZM700 650V150C700 122.385 722.385 100 750 100H850C877.615 100 900 122.385 900 150V650C900 677.616 877.616 700 850 700H750C722.384 700 700 677.616 700 650Z" fill="#1B1850"/>
</svg>
