<svg width="1000" height="1000" viewBox="0 0 1000 1000" fill="none" xmlns="http://www.w3.org/2000/svg">
<path d="M0 166.667C0 74.6192 74.6192 0 166.667 0H611.111C703.159 0 777.778 74.6192 777.778 166.667V222.222H833.333C925.381 222.222 1000 296.841 1000 388.889V833.333C1000 925.381 925.381 1000 833.333 1000H388.889C296.841 1000 222.222 925.381 222.222 833.333V777.778H166.667C74.6192 777.778 0 703.159 0 611.111V166.667ZM333.333 833.333C333.333 864.016 358.206 888.889 388.889 888.889H833.333C864.016 888.889 888.889 864.016 888.889 833.333V388.889C888.889 358.206 864.016 333.333 833.333 333.333H388.889C358.206 333.333 333.333 358.206 333.333 388.889V833.333ZM666.667 222.222V166.667C666.667 135.984 641.794 111.111 611.111 111.111H166.667C135.984 111.111 111.111 135.984 111.111 166.667V611.111C111.111 641.794 135.984 666.667 166.667 666.667H222.222V388.889C222.222 296.841 296.841 222.222 388.889 222.222H666.667Z" fill="#111827"/>
</svg>
