<svg width="1000" height="1000" viewBox="0 0 1000 1000" fill="none" xmlns="http://www.w3.org/2000/svg">
<g filter="url(#filter0_i_502_17)">
<path d="M474.746 10.4605C488.693 -3.48682 511.307 -3.48682 525.254 10.4605L989.54 474.746C1003.49 488.693 1003.49 511.307 989.54 525.254C975.592 539.201 952.979 539.201 939.032 525.254L896.825 483.047V912.698C896.825 960.914 857.739 1000 809.524 1000H190.476C142.261 1000 103.175 960.914 103.175 912.698V483.047L60.9681 525.254C47.0208 539.201 24.4078 539.201 10.4605 525.254C-3.48682 511.307 -3.48682 488.693 10.4605 474.746L474.746 10.4605ZM174.603 411.619V912.698C174.603 921.465 181.71 928.571 190.476 928.571H345.238C354.004 928.571 361.111 921.465 361.111 912.698V706.349C361.111 658.134 400.197 619.048 448.413 619.048H551.587C599.803 619.048 638.889 658.134 638.889 706.349V912.698C638.889 921.465 645.996 928.571 654.762 928.571H809.524C818.29 928.571 825.397 921.465 825.397 912.698V411.619L500 86.2219L174.603 411.619ZM568.9 928.571C567.954 923.424 567.46 918.119 567.46 912.698V706.349C567.46 697.583 560.354 690.476 551.587 690.476H448.413C439.646 690.476 432.54 697.583 432.54 706.349V912.698C432.54 918.119 432.046 923.424 431.1 928.571H568.9Z" fill="#1B1850"/>
</g>
<defs>
<filter id="filter0_i_502_17" x="0" y="0" width="1000" height="1000.1" filterUnits="userSpaceOnUse" color-interpolation-filters="sRGB">
<feFlood flood-opacity="0" result="BackgroundImageFix"/>
<feBlend mode="normal" in="SourceGraphic" in2="BackgroundImageFix" result="shape"/>
<feColorMatrix in="SourceAlpha" type="matrix" values="0 0 0 0 0 0 0 0 0 0 0 0 0 0 0 0 0 0 127 0" result="hardAlpha"/>
<feOffset dy="0.1"/>
<feGaussianBlur stdDeviation="0.5"/>
<feComposite in2="hardAlpha" operator="arithmetic" k2="-1" k3="1"/>
<feColorMatrix type="matrix" values="0 0 0 0 0 0 0 0 0 0 0 0 0 0 0 0 0 0 0.25 0"/>
<feBlend mode="normal" in2="shape" result="effect1_innerShadow_502_17"/>
</filter>
</defs>
</svg>
