<svg width="1358" height="1000" viewBox="0 0 1358 1000" fill="none" xmlns="http://www.w3.org/2000/svg">
<path d="M294.892 19.8869C321.408 46.4028 321.408 89.3936 294.892 115.91C82.7646 328.037 82.7646 671.963 294.892 884.09C321.408 910.606 321.408 953.597 294.892 980.113C268.376 1006.63 225.385 1006.63 198.869 980.113C-66.2898 714.954 -66.2898 285.046 198.869 19.8869C225.385 -6.62898 268.376 -6.62898 294.892 19.8869ZM1063.07 19.8869C1089.59 -6.62898 1132.58 -6.62898 1159.1 19.8869C1424.25 285.046 1424.25 714.954 1159.1 980.113C1132.58 1006.63 1089.59 1006.63 1063.07 980.113C1036.56 953.597 1036.56 910.606 1063.07 884.09C1275.2 671.963 1275.2 328.037 1063.07 115.91C1036.56 89.3936 1036.56 46.4028 1063.07 19.8869ZM486.937 211.932C513.453 238.448 513.453 281.439 486.937 307.955C380.874 414.018 380.874 585.982 486.937 692.045C513.453 718.561 513.453 761.552 486.937 788.068C460.421 814.584 417.43 814.584 390.915 788.068C231.819 628.972 231.819 371.028 390.915 211.932C417.431 185.416 460.421 185.416 486.937 211.932ZM871.028 211.932C897.544 185.416 940.534 185.416 967.05 211.932C1126.15 371.028 1126.15 628.972 967.05 788.068C940.534 814.584 897.544 814.584 871.028 788.068C844.512 761.552 844.512 718.561 871.028 692.045C977.091 585.982 977.091 414.018 871.028 307.955C844.512 281.439 844.512 238.448 871.028 211.932ZM543.186 500C543.186 425.002 603.984 364.204 678.982 364.204C753.981 364.204 814.779 425.002 814.779 500C814.779 574.998 753.981 635.797 678.982 635.797C603.984 635.797 543.186 574.998 543.186 500Z" fill="#111827"/>
</svg>
