<svg width="1000" height="1000" viewBox="0 0 1000 1000" fill="none" xmlns="http://www.w3.org/2000/svg">
<path d="M805.204 194.792L805.207 194.795C824.192 213.779 824.192 244.555 805.207 263.539L805.205 263.54L781.989 286.756L713.245 218.01L736.461 194.793L736.462 194.792C755.444 175.81 786.223 175.81 805.204 194.792ZM703.422 365.324L247.824 820.922H180.558V750.695L634.677 296.577L703.422 365.324ZM85.7186 688.4C75.2998 698.818 69.4467 712.949 69.4467 727.683V876.478C69.4467 907.16 94.3197 932.033 125.002 932.033H270.836C285.57 932.033 299.701 926.18 310.119 915.762L883.771 342.109C883.771 342.109 883.772 342.108 883.773 342.108C946.151 279.732 946.152 178.602 883.773 116.227C821.4 53.8503 720.267 53.8503 657.893 116.227L85.7186 688.4Z" fill="black"/>
</svg>
