<svg width="1000" height="1000" viewBox="0 0 1000 1000" fill="none" xmlns="http://www.w3.org/2000/svg">
<path d="M55.5556 0C86.238 0 111.111 24.8731 111.111 55.5556V185.721C202.744 72.47 342.871 0 500 0C755.018 0 965.371 190.869 996.135 437.57C999.931 468.017 978.327 495.776 947.88 499.573C917.434 503.37 889.674 481.766 885.877 451.319C861.963 259.541 698.273 111.111 500 111.111C367.906 111.111 251.11 176.981 180.801 277.778H333.333C364.016 277.778 388.889 302.651 388.889 333.333C388.889 364.016 364.016 388.889 333.333 388.889H55.5556C24.8731 388.889 0 364.016 0 333.333V55.5556C0 24.8731 24.8731 0 55.5556 0ZM52.1197 500.427C82.5664 496.63 110.326 518.234 114.123 548.681C138.037 740.459 301.727 888.889 500 888.889C632.094 888.889 748.89 823.019 819.199 722.222H666.667C635.984 722.222 611.111 697.349 611.111 666.667C611.111 635.984 635.984 611.111 666.667 611.111H944.444C975.127 611.111 1000 635.984 1000 666.667V944.444C1000 975.127 975.127 1000 944.444 1000C913.762 1000 888.889 975.127 888.889 944.444V814.279C797.257 927.53 657.129 1000 500 1000C244.982 1000 34.6287 809.131 3.86551 562.43C0.0688665 531.983 21.673 504.224 52.1197 500.427Z" fill="#FBFCFF"/>
</svg>
