<svg width="1141" height="1141" viewBox="0 0 1141 1141" fill="none" xmlns="http://www.w3.org/2000/svg">
<path fill-rule="evenodd" clip-rule="evenodd" d="M95.0833 475.417C95.0833 396.647 158.939 332.792 237.708 332.792H903.292C982.061 332.792 1045.92 396.647 1045.92 475.417V665.583C1045.92 744.353 982.061 808.208 903.292 808.208H237.708C158.939 808.208 95.0833 744.353 95.0833 665.583V475.417ZM237.708 427.875C211.452 427.875 190.167 449.16 190.167 475.417V665.583C190.167 691.84 211.452 713.125 237.708 713.125H903.292C929.548 713.125 950.833 691.84 950.833 665.583V475.417C950.833 449.16 929.548 427.875 903.292 427.875H237.708ZM760.667 570.5C760.667 544.243 781.952 522.958 808.208 522.958H808.684C834.94 522.958 856.225 544.243 856.225 570.5C856.225 596.756 834.94 618.042 808.684 618.042H808.208C781.952 618.042 760.667 596.756 760.667 570.5Z" fill="#FBFCFF"/>
</svg>
