<svg width="1300" height="1300" viewBox="0 0 1300 1300" fill="none" xmlns="http://www.w3.org/2000/svg">
<path d="M509.247 162.663C571.792 54.3286 728.209 54.3286 790.753 162.663L1189.1 853.191C1251.57 961.515 1173.38 1096.87 1048.4 1096.87H251.604C126.589 1096.87 48.3585 961.536 110.898 853.191C110.9 853.187 110.896 853.195 110.898 853.191L509.247 162.663ZM579.612 203.287L181.277 893.791C150.013 947.944 189.099 1015.62 251.604 1015.62H1048.4C1110.83 1015.62 1149.96 947.962 1118.72 893.786L720.388 203.287C689.117 149.121 610.884 149.121 579.612 203.287ZM650 446.875C672.437 446.875 690.625 465.063 690.625 487.5V690.625C690.625 713.061 672.437 731.25 650 731.25C627.564 731.25 609.375 713.061 609.375 690.625V487.5C609.375 465.063 627.564 446.875 650 446.875ZM609.375 853.125C609.375 830.688 627.564 812.5 650 812.5H650.379C672.816 812.5 691.004 830.688 691.004 853.125V853.558C691.004 875.994 672.816 894.183 650.379 894.183H650C627.564 894.183 609.375 875.994 609.375 853.558V853.125Z" fill="black"/>
</svg>
