<svg width="1000" height="1000" viewBox="0 0 1000 1000" fill="none" xmlns="http://www.w3.org/2000/svg">
<path d="M367.643 104.07C401.329 -34.69 598.671 -34.6898 632.357 104.07C638.141 127.895 665.438 139.201 686.374 126.444C808.312 52.1463 947.854 191.688 873.556 313.626C860.799 334.562 872.105 361.859 895.93 367.643C1034.69 401.329 1034.69 598.671 895.93 632.357C872.105 638.141 860.799 665.438 873.556 686.374C947.854 808.312 808.312 947.854 686.374 873.556C665.438 860.799 638.141 872.105 632.357 895.93C598.671 1034.69 401.329 1034.69 367.643 895.93C361.859 872.105 334.563 860.799 313.626 873.556C191.688 947.854 52.1463 808.312 126.444 686.374C139.201 665.438 127.895 638.141 104.07 632.357C-34.6898 598.671 -34.69 401.329 104.07 367.643C127.895 361.859 139.201 334.562 126.444 313.626C52.1463 191.688 191.688 52.1462 313.626 126.444C334.563 139.201 361.859 127.895 367.643 104.07ZM535.18 127.661C526.226 90.7795 473.774 90.7797 464.82 127.661C443.059 217.298 340.363 259.836 261.593 211.841C229.182 192.093 192.093 229.182 211.841 261.593C259.836 340.363 217.298 443.059 127.661 464.82C90.7797 473.774 90.7795 526.226 127.661 535.18C217.298 556.941 259.836 659.637 211.841 738.407C192.093 770.818 229.182 807.907 261.593 788.159C340.363 740.164 443.059 782.702 464.82 872.339C473.774 909.22 526.226 909.22 535.18 872.339C556.941 782.702 659.637 740.164 738.407 788.159C770.818 807.907 807.907 770.818 788.159 738.407C740.164 659.637 782.702 556.941 872.339 535.18C909.22 526.226 909.22 473.774 872.339 464.82C782.702 443.059 740.164 340.363 788.159 261.593C807.907 229.182 770.818 192.093 738.407 211.841C659.637 259.836 556.941 217.298 535.18 127.661ZM500 400C444.772 400 400 444.772 400 500C400 555.228 444.772 600 500 600C555.228 600 600 555.228 600 500C600 444.772 555.228 400 500 400ZM300 500C300 389.543 389.543 300 500 300C610.457 300 700 389.543 700 500C700 610.457 610.457 700 500 700C389.543 700 300 610.457 300 500Z" fill="#FBFCFF"/>
</svg>
