<svg width="1000" height="1000" viewBox="0 0 20 18" fill="none" xmlns="http://www.w3.org/2000/svg">
<path fill-rule="evenodd" clip-rule="evenodd" d="M7.40198 1.5C8.55668 -0.5 11.4435 -0.5 12.5982 1.5L19.5264 13.5C20.6811 15.5 19.2376 18 16.9282 18H3.07186C0.762462 18 -0.68092 15.5 0.473782 13.5L7.40198 1.5ZM10.8661 2.5C10.4812 1.83333 9.51893 1.83333 9.13403 2.5L2.20583 14.5C1.82095 15.1666 2.30206 16 3.07186 16H16.9282C17.6981 16 18.1792 15.1666 17.7943 14.5L10.8661 2.5ZM10 6C10.5523 6 11 6.44772 11 7V9C11 9.55229 10.5523 10 10 10C9.44774 10 9.00003 9.55229 9.00003 9V7C9.00003 6.44772 9.44774 6 10 6ZM9.00003 13C9.00003 12.4477 9.44774 12 10 12H10.01C10.5623 12 11.01 12.4477 11.01 13C11.01 13.5523 10.5623 14 10.01 14H10C9.44774 14 9.00003 13.5523 9.00003 13Z" fill="#1B1850"/>
</svg>
