<svg width="1139" height="1022" viewBox="0 0 1139 1022" fill="none" xmlns="http://www.w3.org/2000/svg">
<path d="M160.788 87.5786C141.432 87.5786 122.869 95.2678 109.182 108.955C95.4953 122.641 87.8061 141.205 87.8061 160.561C87.8061 179.917 95.4953 198.48 109.182 212.167C122.869 225.854 141.432 233.543 160.788 233.543H978.189C997.545 233.543 1016.11 225.854 1029.79 212.167C1043.48 198.48 1051.17 179.917 1051.17 160.561C1051.17 141.205 1043.48 122.641 1029.79 108.955C1016.11 95.2678 997.545 87.5786 978.189 87.5786H160.788ZM47.2547 47.0272C77.3657 16.9162 118.205 0 160.788 0H978.189C1020.77 0 1061.61 16.9162 1091.72 47.0272C1121.83 77.1381 1138.75 117.977 1138.75 160.561C1138.75 203.144 1121.83 243.983 1091.72 274.094C1072.18 293.641 1048.11 307.627 1021.98 315.035V861.19C1021.98 903.773 1005.06 944.612 974.951 974.723C944.84 1004.83 904.001 1021.75 861.417 1021.75H277.56C234.976 1021.75 194.137 1004.83 164.026 974.723C133.915 944.612 116.999 903.773 116.999 861.19V315.035C90.8685 307.627 66.8012 293.641 47.2547 274.094C17.1437 243.983 0.227539 203.144 0.227539 160.561C0.227539 117.977 17.1437 77.1381 47.2547 47.0272ZM204.578 321.122V861.19C204.578 880.546 212.267 899.109 225.954 912.796C239.64 926.483 258.204 934.172 277.56 934.172H861.417C880.773 934.172 899.336 926.483 913.023 912.796C926.71 899.109 934.399 880.546 934.399 861.19V321.122H204.578ZM408.928 510.875C408.928 486.691 428.533 467.086 452.717 467.086H686.26C710.444 467.086 730.049 486.691 730.049 510.875C730.049 535.059 710.444 554.665 686.26 554.665H452.717C428.533 554.665 408.928 535.059 408.928 510.875Z" fill="black"/>
</svg>
