<svg width="1000" height="1000" viewBox="0 0 17 16" fill="none" xmlns="http://www.w3.org/2000/svg">
<path d="M0.292893 0.292893C0.683417 -0.0976311 1.31658 -0.0976311 1.70711 0.292893L8.70711 7.29289C8.89464 7.48043 9 7.73478 9 8C9 8.26522 8.89464 8.51957 8.70711 8.70711L1.70711 15.7071C1.31658 16.0976 0.683418 16.0976 0.292894 15.7071C-0.0976305 15.3166 -0.0976305 14.6834 0.292894 14.2929L6.58579 8L0.292893 1.70711C-0.0976311 1.31658 -0.0976311 0.683418 0.292893 0.292893ZM8.29289 0.292893C8.68342 -0.0976311 9.31658 -0.0976311 9.70711 0.292893L16.7071 7.29289C17.0976 7.68342 17.0976 8.31658 16.7071 8.70711L9.70711 15.7071C9.31658 16.0976 8.68342 16.0976 8.29289 15.7071C7.90237 15.3166 7.90237 14.6834 8.29289 14.2929L14.5858 8L8.29289 1.70711C7.90237 1.31658 7.90237 0.683418 8.29289 0.292893Z" fill="#111827"/>
</svg>
