<svg width="1136" height="1010" viewBox="0 0 1136 1010" fill="none" xmlns="http://www.w3.org/2000/svg">
<path fill-rule="evenodd" clip-rule="evenodd" d="M444.484 990.504C468.925 965.676 468.611 925.735 443.782 901.294L217.092 678.146L623.824 678.146C905.475 678.146 1135.5 453.132 1135.5 173.479L1135.5 63.0835C1135.5 28.2435 1107.26 9.85479e-05 1072.42 9.5502e-05C1037.58 9.24562e-05 1009.33 28.2435 1009.33 63.0835L1009.33 173.479C1009.33 381.586 837.675 551.979 623.824 551.979L217.092 551.979L443.782 328.832C468.611 304.391 468.925 264.45 444.484 239.621C420.044 214.792 380.103 214.478 355.274 238.919L18.8293 570.106C6.78341 581.964 3.5946e-05 598.16 3.44683e-05 615.063C3.29906e-05 631.966 6.7834 648.161 18.8293 660.019L355.274 991.207C380.103 1015.65 420.043 1015.33 444.484 990.504Z" fill="#111827"/>
</svg>
