<svg width="1000" height="1000" viewBox="0 0 1000 1000" fill="none" xmlns="http://www.w3.org/2000/svg">
<path d="M750 100H850C863.261 100 875.978 105.268 885.355 114.645C894.732 124.021 900 136.739 900 150V850C900 863.261 894.732 875.978 885.355 885.355C875.978 894.732 863.261 900 850 900H750C736.739 900 724.022 894.732 714.645 885.355C705.268 875.978 700 863.261 700 850V150C700 136.739 705.268 124.021 714.645 114.645C724.021 105.268 736.739 100 750 100ZM650 961.804C677.426 986.336 713.009 1000 750 1000H850C889.783 1000 927.936 984.196 956.066 956.066C984.196 927.936 1000 889.783 1000 850V150C1000 110.218 984.196 72.0644 956.066 43.934C927.936 15.8035 889.783 0 850 0H750C710.218 0 672.064 15.8035 643.934 43.934C615.804 72.0644 600 110.218 600 150V208.579C584.09 202.953 567.197 200 550 200H450C410.218 200 372.064 215.804 343.934 243.934C315.804 272.064 300 310.217 300 350V408.579C284.09 402.953 267.197 400 250 400H150C110.218 400 72.0644 415.804 43.934 443.934C15.8035 472.064 0 510.218 0 550V850C0 889.783 15.8035 927.936 43.934 956.066C72.0644 984.196 110.218 1000 150 1000H250C286.991 1000 322.574 986.336 350 961.804C377.426 986.336 413.009 1000 450 1000H550C586.991 1000 622.574 986.336 650 961.804ZM600 850C600 863.261 594.732 875.978 585.355 885.355C575.978 894.732 563.261 900 550 900H450C436.739 900 424.022 894.732 414.645 885.355C405.268 875.978 400 863.261 400 850V350C400 336.739 405.268 324.021 414.645 314.645C424.022 305.268 436.739 300 450 300H550C563.261 300 575.979 305.268 585.355 314.645C594.732 324.021 600 336.739 600 350V850ZM300 850C300 863.261 294.732 875.978 285.355 885.355C275.978 894.732 263.261 900 250 900H150C136.739 900 124.021 894.732 114.645 885.355C105.268 875.978 100 863.261 100 850V550C100 536.739 105.268 524.021 114.645 514.645C124.021 505.268 136.739 500 150 500H250C263.261 500 275.978 505.268 285.355 514.645C294.732 524.022 300 536.739 300 550V850Z" fill="black"/>
</svg>
