<svg width="862" height="977" viewBox="0 0 862 977" fill="none" xmlns="http://www.w3.org/2000/svg">
<path fill-rule="evenodd" clip-rule="evenodd" d="M622.012 299.844L743.355 355.989L762.327 314.986C762.327 314.986 870.437 66.0387 860.898 39.9473C851.359 13.8555 832.087 10.0285 832.087 10.0285C832.087 10.0285 810.705 -5.36069 782.502 1.9882C754.302 9.33709 640.984 258.843 640.984 258.843L622.012 299.844ZM770.555 544.964L445.823 394.718L464.795 353.714C464.795 353.714 494.034 320.533 556.477 329.027C618.92 337.521 679.655 371.118 679.655 371.118C679.655 371.118 727.98 388.386 767.355 428.286C806.734 468.182 789.527 503.964 789.527 503.964L770.555 544.964ZM566.591 973.168L572.316 929.386L607.887 955.543L592.445 976.546L566.591 973.168ZM82.1435 703.5C53.2596 736.893 53.2642 736.9 53.2692 736.903L53.4167 737.028L53.7606 737.325L54.9946 738.378C56.0563 739.282 57.5906 740.582 59.5639 742.232C63.5096 745.536 69.2171 750.25 76.4171 756.039C90.8013 767.607 111.223 783.521 135.514 801.036C183.562 835.682 248.895 878.157 313.527 904.818C376.52 930.8 439.623 947.807 486.627 958.311C510.223 963.582 529.987 967.268 543.941 969.643C550.923 970.832 556.462 971.696 560.316 972.271C562.245 972.561 563.752 972.775 564.805 972.925L566.048 973.093L566.409 973.143L566.577 973.164C566.584 973.164 566.591 973.168 572.316 929.386C607.887 955.543 607.891 955.539 607.895 955.536L607.97 955.436L608.13 955.214L608.687 954.446C609.166 953.789 609.845 952.85 610.709 951.643C612.437 949.228 614.909 945.743 617.97 941.339C624.084 932.536 632.584 920.003 642.245 904.925C661.434 874.982 685.802 834.068 705.087 791.882C724.17 750.139 740.58 703.721 752.098 668.307C757.895 650.478 762.534 635.178 765.734 624.307C767.337 618.864 768.58 614.521 769.434 611.507L770.412 608.018L770.673 607.071L770.773 606.7C770.777 606.696 770.777 606.693 728.18 595.075C685.584 583.457 685.584 583.453 685.584 583.453L685.53 583.653L685.32 584.403L684.455 587.489C683.684 590.221 682.527 594.261 681.023 599.375C678.012 609.607 673.616 624.096 668.12 640.996C657.048 675.046 641.834 717.85 624.777 755.168C607.916 792.043 585.98 829.057 567.895 857.282C562.012 866.461 556.602 874.614 551.995 881.411C539.905 879.261 524.166 876.214 505.884 872.132C461.859 862.293 403.984 846.607 347.2 823.186C292.055 800.439 233.278 762.664 187.161 729.411C178.728 723.328 170.79 717.453 163.454 711.914C197.707 692.993 242.666 665.678 289.476 630.296C337.64 593.893 379.777 558.103 409.845 531.443C424.898 518.096 436.98 506.993 445.341 499.186C449.52 495.282 452.773 492.196 455.005 490.068L457.577 487.603L458.266 486.939L458.512 486.696L458.541 486.671C458.541 486.668 458.545 486.664 427.748 455.025C396.955 423.386 396.955 423.382 396.959 423.382L396.941 423.4L396.823 423.511L396.287 424.032L394.034 426.189C392.023 428.111 389.002 430.975 385.066 434.646C377.198 442 365.68 452.586 351.261 465.368C322.381 490.971 282.068 525.207 236.23 559.85C191.385 593.746 148.146 619.7 116.112 637.164C100.13 645.878 87.0281 652.432 78.0296 656.757C73.5324 658.918 70.0671 660.521 67.7871 661.557C66.6474 662.075 65.8046 662.453 65.2774 662.686L64.7271 662.928L64.6656 662.953L64.6549 662.957L64.6463 662.961L0 690.828L53.2596 736.893L82.1435 703.5Z" fill="#1B1850"/>
</svg>
