<svg width="1079" height="1079" viewBox="0 0 1079 1079" fill="none" xmlns="http://www.w3.org/2000/svg">
<path fill-rule="evenodd" clip-rule="evenodd" d="M539.5 107.9C301.134 107.9 107.9 301.134 107.9 539.5C107.9 777.866 301.134 971.1 539.5 971.1C777.866 971.1 971.1 777.866 971.1 539.5C971.1 301.134 777.866 107.9 539.5 107.9ZM0 539.5C0 241.542 241.542 0 539.5 0C837.458 0 1079 241.542 1079 539.5C1079 837.458 837.458 1079 539.5 1079C241.542 1079 0 837.458 0 539.5ZM539.5 269.75C569.296 269.75 593.45 293.904 593.45 323.7V517.153L739.498 663.202C760.567 684.27 760.567 718.43 739.498 739.498C718.43 760.567 684.27 760.567 663.202 739.498L501.352 577.648C491.234 567.531 485.55 553.808 485.55 539.5V323.7C485.55 293.904 509.704 269.75 539.5 269.75Z" fill="#111827"/>
</svg>
