<svg width="1000" height="1000" viewBox="0 0 1000 1000" fill="none" xmlns="http://www.w3.org/2000/svg">
<path d="M567.955 74.1272C567.955 74.1274 567.955 74.1276 567.955 74.1279L513.653 128.429C491.957 150.125 491.957 185.3 513.653 206.996C535.348 228.692 570.524 228.692 592.22 206.997L646.522 152.695L646.523 152.694C701.966 97.25 791.862 97.25 847.305 152.694C902.748 208.139 902.748 298.033 847.305 353.478C847.305 353.478 847.305 353.478 847.305 353.478L649.772 551.011C594.329 606.454 504.436 606.454 448.991 551.01C427.295 529.315 392.119 529.315 370.423 551.011C348.728 572.707 348.728 607.883 370.424 629.579C469.26 728.412 629.504 728.413 728.339 629.578L925.873 432.045L925.873 432.045C1024.71 333.209 1024.71 172.964 925.873 74.1279C827.039 -24.7091 666.79 -24.7093 567.955 74.1272ZM271.658 370.424L309.487 408.252L271.658 370.424L74.1279 567.955C74.1277 567.955 74.1275 567.955 74.1273 567.955C-24.7093 666.79 -24.7091 827.038 74.1279 925.873C172.964 1024.71 333.209 1024.71 432.045 925.873L432.046 925.872L486.444 871.472C508.14 849.776 508.139 814.6 486.443 792.905C464.747 771.209 429.571 771.21 407.876 792.906L353.478 847.305C353.478 847.305 353.478 847.305 353.477 847.306C298.032 902.748 208.139 902.748 152.694 847.305C97.25 791.862 97.25 701.966 152.694 646.523L152.695 646.522L350.225 448.991C405.67 393.546 495.564 393.546 551.011 448.991C572.707 470.687 607.883 470.687 629.579 448.991C651.274 427.294 651.274 392.119 629.578 370.423C530.74 271.588 370.495 271.587 271.658 370.424Z" fill="#111827"/>
</svg>
