<svg width="946" height="1000" viewBox="0 0 946 1000" fill="none" xmlns="http://www.w3.org/2000/svg">
<path d="M0.777832 222.222C0.777832 99.4925 100.27 0 223 0C345.73 0 445.222 99.4925 445.222 222.222C445.222 263.41 433.984 302.021 414.446 335.101L500.778 421.433L850.383 71.8274C872.079 50.1316 907.255 50.1316 928.95 71.8274C950.646 93.5232 950.646 128.699 928.95 150.395L540.062 539.284C540.05 539.295 540.038 539.307 540.027 539.319L414.446 664.9C433.983 697.98 445.222 736.59 445.222 777.778C445.222 900.511 345.729 1000 223 1000C100.271 1000 0.777832 900.511 0.777832 777.778C0.777832 655.045 100.271 555.556 223 555.556C264.188 555.556 302.799 566.795 335.879 586.332L422.211 500L335.879 413.669C302.799 433.206 264.188 444.444 223 444.444C100.27 444.444 0.777832 344.952 0.777832 222.222ZM301.527 699.171C281.363 679.026 253.677 666.667 223 666.667C161.635 666.667 111.889 716.411 111.889 777.778C111.889 839.145 161.635 888.889 223 888.889C284.365 888.889 334.111 839.145 334.111 777.778C334.111 747.102 321.752 719.416 301.607 699.251C301.594 699.238 301.581 699.225 301.568 699.212C301.554 699.198 301.541 699.185 301.527 699.171ZM301.567 300.79C321.735 280.622 334.111 252.92 334.111 222.222C334.111 160.857 284.365 111.111 223 111.111C161.635 111.111 111.889 160.857 111.889 222.222C111.889 283.587 161.635 333.333 223 333.333C253.698 333.333 281.4 320.957 301.567 300.79ZM579.344 578.566C601.04 556.87 636.216 556.87 657.912 578.566L928.95 849.605C950.646 871.301 950.646 906.477 928.95 928.173C907.255 949.868 872.079 949.868 850.383 928.173L579.344 657.134C557.648 635.438 557.648 600.262 579.344 578.566Z" fill="#111827"/>
</svg>
