<svg width="900" height="1000" viewBox="0 0 900 1000" fill="none" xmlns="http://www.w3.org/2000/svg">
<path d="M189.518 153.3C253.598 121.26 345.622 100 450 100C554.378 100 646.403 121.26 710.482 153.3C777.553 186.835 800 223.913 800 250C800 276.087 777.553 313.165 710.482 346.7C646.403 378.74 554.378 400 450 400C345.622 400 253.598 378.74 189.518 346.7C122.447 313.165 100 276.087 100 250C100 223.913 122.447 186.835 189.518 153.3ZM800 410.033V500C800 526.086 777.553 563.164 710.482 596.699C646.403 628.74 554.378 650 450 650C345.622 650 253.598 628.74 189.518 596.699C122.447 563.164 100 526.086 100 500V410.032C114.211 419.68 129.293 428.391 144.797 436.143C225.488 476.489 333.464 500 450 500C566.537 500 674.512 476.489 755.204 436.143C770.708 428.391 785.789 419.68 800 410.033ZM900 250C900 165.63 832.905 102.708 755.204 63.8573C674.512 23.5114 566.537 0 450 0C333.464 0 225.488 23.5114 144.797 63.8573C67.0956 102.708 0 165.63 0 250V750C0 834.369 67.0958 897.291 144.796 936.142C225.488 976.488 333.464 1000 450 1000C566.537 1000 674.512 976.488 755.204 936.142C832.905 897.291 900 834.369 900 750V250ZM800 660.032V750C800 776.086 777.553 813.164 710.482 846.699C646.403 878.74 554.378 900 450 900C345.622 900 253.598 878.74 189.518 846.699C122.447 813.164 100 776.086 100 750V660.031C114.211 669.679 129.292 678.39 144.796 686.142C225.488 726.488 333.464 750 450 750C566.537 750 674.512 726.488 755.204 686.142C770.708 678.39 785.789 669.68 800 660.032Z" fill="#1B1850"/>
</svg>
