<svg width="1037" height="1297" viewBox="0 0 1037 1297" fill="none" xmlns="http://www.w3.org/2000/svg">
<path fill-rule="evenodd" clip-rule="evenodd" d="M518.5 0.75C554.295 0.75 583.312 29.7675 583.312 65.5625V1075.72L926.358 732.671C951.669 707.36 992.706 707.36 1018.02 732.671C1043.33 757.981 1043.33 799.019 1018.02 824.329L564.329 1278.02C552.175 1290.17 535.689 1297 518.5 1297C501.311 1297 484.825 1290.17 472.671 1278.02L18.9831 824.329C-6.32771 799.018 -6.32771 757.981 18.9831 732.671C44.294 707.36 85.331 707.36 110.642 732.671L453.687 1075.72L453.688 65.5625C453.688 29.7675 482.705 0.75 518.5 0.75Z" fill="#111827"/>
</svg>
