<svg width="1465" height="1271" viewBox="0 0 1465 1271" fill="none" xmlns="http://www.w3.org/2000/svg">
<path d="M877.821 214.384C877.82 214.384 877.82 214.385 877.819 214.385L780.549 311.663C767.773 324.441 750.444 331.619 732.375 331.619C714.306 331.62 696.977 324.442 684.2 311.665L586.92 214.385C483.824 111.289 316.673 111.289 213.577 214.385C110.481 317.481 110.481 484.633 213.577 587.729L732.373 1106.53L1251.16 587.729L1299.34 635.902L1251.16 587.729C1354.26 484.633 1354.26 317.481 1251.16 214.385C1148.07 111.29 980.917 111.289 877.821 214.384ZM781.472 118.039C937.779 -38.2681 1191.2 -38.2681 1347.51 118.039C1503.82 274.345 1503.82 527.769 1347.51 684.076L780.547 1251.05C767.771 1263.82 750.442 1271 732.374 1271C714.305 1271 696.977 1263.82 684.2 1251.05L117.23 684.076C-39.0767 527.769 -39.0767 274.346 117.23 118.039C273.537 -38.2681 526.96 -38.2681 683.267 118.039L732.372 167.143L781.47 118.041L781.472 118.039Z" fill="#FBFCFF"/>
</svg>
