<svg width="1300" height="1300" viewBox="0 0 1300 1300" fill="none" xmlns="http://www.w3.org/2000/svg">
<path d="M276.556 276.557C375.599 177.514 509.931 121.872 649.999 121.872C790.067 121.872 924.399 177.514 1023.44 276.557C1122.49 375.6 1178.13 509.932 1178.13 650C1178.13 790.068 1122.49 924.4 1023.44 1023.44C924.399 1122.49 790.067 1178.13 649.999 1178.13C509.931 1178.13 375.599 1122.49 276.556 1023.44C177.513 924.4 121.871 790.068 121.871 650C121.871 509.932 177.513 375.6 276.556 276.557ZM364.042 306.591L993.408 935.957C1059.99 855.999 1096.88 754.901 1096.88 650C1096.88 531.481 1049.8 417.815 965.99 334.01C882.184 250.204 768.518 203.122 649.999 203.122C545.098 203.122 444 240.006 364.042 306.591ZM935.956 993.409L306.59 364.043C240.005 444.001 203.121 545.099 203.121 650C203.121 768.519 250.203 882.185 334.009 965.991C417.814 1049.8 531.48 1096.88 649.999 1096.88C754.9 1096.88 855.998 1059.99 935.956 993.409Z" fill="black"/>
</svg>
