<svg width="1000" height="1000" viewBox="0 0 1000 1000" fill="none" xmlns="http://www.w3.org/2000/svg">
<path d="M500 409.091C449.793 409.091 409.091 449.793 409.091 500C409.091 550.208 449.793 590.909 500 590.909C550.209 590.909 590.909 550.208 590.909 500C590.909 449.792 550.209 409.091 500 409.091ZM318.182 500C318.182 399.585 399.585 318.182 500 318.182C600.418 318.182 681.818 399.585 681.818 500C681.818 600.415 600.418 681.818 500 681.818C399.585 681.818 318.182 600.415 318.182 500Z" fill="#1B1850"  stroke-linecap="square" stroke-width="1" stroke-miterlimit="30"/>/>
<path d="M114.194 499.999C170.363 658.934 321.959 772.727 500.023 772.727C678.082 772.727 829.678 658.934 885.845 500.002C829.678 341.066 678.082 227.273 500.018 227.273C321.96 227.273 170.364 341.065 114.194 499.999ZM22.9183 486.378C86.6193 283.565 276.07 136.364 500.018 136.364C723.971 136.364 913.423 283.566 977.121 486.382C979.905 495.249 979.905 504.755 977.121 513.622C913.423 716.434 723.971 863.636 500.023 863.636C276.07 863.636 86.6183 716.434 22.9182 513.619C20.1333 504.752 20.1334 495.245 22.9183 486.378Z" fill="#1B1850"/>

</svg>
