<svg width="1000" height="1000" viewBox="0 0 1000 1000" fill="none" xmlns="http://www.w3.org/2000/svg">
<path d="M166.667 166.667C166.667 166.667 166.667 166.667 166.667 166.667C166.667 166.667 166.667 166.667 166.667 166.667V274.408L433.923 541.664C449.555 557.293 458.333 578.493 458.333 600.592V774.408L541.667 691.074V600.592C541.667 578.489 550.449 557.292 566.075 541.666L833.331 274.41L833.333 274.408C833.332 274.409 833.333 274.408 833.333 274.406V166.667H166.667ZM83.3333 166.667C83.3333 120.643 120.643 83.3333 166.667 83.3333H833.333C879.358 83.3333 916.667 120.644 916.667 166.667V274.408C916.667 296.513 907.882 317.707 892.261 333.331L892.259 333.333L625 600.592V708.333C625 719.384 620.61 729.982 612.796 737.796L446.129 904.463C434.213 916.379 416.291 919.944 400.721 913.495C385.152 907.046 375 891.853 375 875L375 600.592L107.741 333.333L137.204 303.87L107.741 333.333C92.1131 317.705 83.3333 296.509 83.3333 274.408V166.667Z" fill="#111827"/>
</svg>
