<svg width="1000" height="1000" viewBox="0 0 1000 1000" fill="none" xmlns="http://www.w3.org/2000/svg">
<path d="M0 150C0 67.1573 67.1573 0 150 0H350C431.687 0 498.123 65.296 499.961 146.541C558.71 90.392 651.858 91.1981 709.619 148.959L851.041 290.381C908.802 348.142 909.608 441.29 853.459 500.039C934.704 501.877 1000 568.313 1000 650V850C1000 932.843 932.843 1000 850 1000H250C111.929 1000 0 888.071 0 750V150ZM453.553 900H850C877.614 900 900 877.614 900 850V650C900 622.386 877.614 600 850 600H753.553L453.553 900ZM697.463 514.669C697.479 514.653 697.496 514.636 697.512 514.62L780.33 431.802C799.856 412.276 799.856 380.617 780.33 361.091L638.909 219.67C619.382 200.144 587.724 200.144 568.198 219.67L500 287.868V712.132L697.463 514.669ZM356.136 855.996C383.239 828.857 400 791.386 400 750V150C400 122.386 377.614 100 350 100H150C122.386 100 100 122.386 100 150V750C100 832.843 167.157 900 250 900C291.421 900 328.921 883.211 356.066 856.066C356.089 856.043 356.112 856.02 356.136 855.996ZM200 750C200 722.386 222.386 700 250 700H250.5C278.114 700 300.5 722.386 300.5 750C300.5 777.614 278.114 800 250.5 800H250C222.386 800 200 777.614 200 750Z" fill="#FBFCFF"/>
</svg>
