<svg width="1000" height="1000" viewBox="0 0 1000 1000" fill="none" xmlns="http://www.w3.org/2000/svg">
<path d="M0 166.667C0 74.6192 67.1573 0 150 0H850C932.843 0 1000 74.6192 1000 166.667V611.111C1000 703.159 932.843 777.778 850 777.778H720.711L535.355 983.728C515.829 1005.42 484.171 1005.42 464.645 983.728L279.289 777.778H150C67.1573 777.778 0 703.159 0 611.111V166.667ZM150 111.111C122.386 111.111 100 135.984 100 166.667V611.111C100 641.794 122.386 666.667 150 666.667H300C313.261 666.667 325.979 672.52 335.355 682.939L500 865.877L664.645 682.939C674.021 672.52 686.739 666.667 700 666.667H850C877.614 666.667 900 641.794 900 611.111V166.667C900 135.984 877.614 111.111 850 111.111H150ZM200 277.778C200 247.095 222.386 222.222 250 222.222H750C777.614 222.222 800 247.095 800 277.778C800 308.46 777.614 333.333 750 333.333H250C222.386 333.333 200 308.46 200 277.778ZM200 500C200 469.318 222.386 444.444 250 444.444H450C477.614 444.444 500 469.318 500 500C500 530.683 477.614 555.556 450 555.556H250C222.386 555.556 200 530.683 200 500Z" fill="#1B1850"/>
</svg>
