<svg width="753" height="603" viewBox="0 0 753 603" fill="none" xmlns="http://www.w3.org/2000/svg">
<path d="M231.75 597.776C216.753 597.776 204.228 587.239 201.157 573.163C170.767 589.306 142.034 597.776 114.85 597.776C50.1389 597.776 0.0371094 551.886 0.0371094 482.963C0.0371094 452.663 10.5103 425.978 29.8605 405.838C49.1784 385.731 76.9812 372.514 111.079 368.379C140.359 364.827 170.034 366.573 199.975 373.5C198.701 360.339 194.527 350.918 187.746 344.334C179.551 336.378 166.484 331.521 146.694 330.537C114.955 328.959 94.1273 333.551 82.6486 341.601C68.4896 351.53 48.9624 348.1 39.0335 333.941C29.1046 319.782 32.5338 300.255 46.6929 290.326C70.1618 273.869 101.583 266.946 140.017 267.653L140.116 267.656L149.805 267.99C183.671 269.674 211.34 280.308 230.938 298.999C250.571 317.724 261.497 343.96 262.906 375.643L262.91 375.784L263.062 382.763V566.463C263.062 582.321 251.28 595.416 235.991 597.49L235.569 597.533L231.75 597.776ZM118.62 431.763C98.9489 434.149 85.0383 440.479 76.091 449.289C67.2399 458.005 62.6621 469.717 62.6621 484.178C62.6621 501.098 68.1239 513.992 77.0028 522.658C85.906 531.347 98.8413 536.366 114.85 536.366C135.774 536.366 162.518 526.631 194.903 505.24L200.404 501.489V439.66L194.825 437.997C168.605 430.793 143.264 428.774 118.62 431.763ZM567.045 26.0551C561.854 11.1306 547.88 1.04854 532.08 0.82791C516.28 0.607275 502.03 10.2952 496.425 25.0689L296.817 551.119C289.454 570.521 299.215 592.218 318.617 599.58C338.02 606.942 359.716 597.182 367.079 577.78L410.157 464.249L639.894 464.249L679.04 576.793C685.857 596.394 707.273 606.756 726.874 599.939C746.474 593.121 756.836 571.705 750.019 552.105L567.045 26.0551ZM613.755 389.099L438.673 389.099L530.02 148.361L613.755 389.099Z" fill="#14142B"/>
</svg>
