<svg width="1119" height="1007" viewBox="0 0 1119 1007" fill="none" xmlns="http://www.w3.org/2000/svg">
<path d="M224.4 112.4C194.775 112.4 166.364 124.169 145.416 145.116C124.468 166.064 112.7 194.476 112.7 224.1V782.6C112.7 812.225 124.468 840.636 145.416 861.584C166.364 882.532 194.775 894.3 224.4 894.3H447.8C477.425 894.3 505.836 882.532 526.784 861.584C547.732 840.636 559.5 812.225 559.5 782.6V726.75C559.5 695.905 584.505 670.9 615.35 670.9C646.195 670.9 671.2 695.905 671.2 726.75V782.6C671.2 841.85 647.663 898.672 605.768 940.568C563.872 982.464 507.049 1006 447.8 1006H224.4C165.151 1006 108.328 982.464 66.4323 940.568C24.5367 898.672 1 841.85 1 782.6V224.1C1 164.851 24.5367 108.028 66.4323 66.1325C108.328 24.2369 165.151 0.700195 224.4 0.700195H447.8C507.049 0.700195 563.872 24.2369 605.768 66.1325C647.663 108.028 671.2 164.851 671.2 224.1V279.95C671.2 310.795 646.195 335.8 615.35 335.8C584.505 335.8 559.5 310.795 559.5 279.95V224.1C559.5 194.476 547.732 166.064 526.784 145.116C505.836 124.169 477.425 112.4 447.8 112.4H224.4ZM799.258 240.458C777.447 262.269 777.447 297.631 799.258 319.442L927.316 447.5H280.25C249.405 447.5 224.4 472.505 224.4 503.35C224.4 534.195 249.405 559.2 280.25 559.2H927.316L799.258 687.258C777.447 709.069 777.447 744.431 799.258 766.242C821.069 788.053 856.431 788.053 878.242 766.242L1101.64 542.842C1123.45 521.031 1123.45 485.669 1101.64 463.858L878.242 240.458C856.431 218.648 821.069 218.648 799.258 240.458Z" fill="black" stroke="black" stroke-linecap="round" stroke-linejoin="round"/>
</svg>
