<svg width="1000" height="1000" viewBox="0 0 1000 1000" fill="none" xmlns="http://www.w3.org/2000/svg">
<path d="M364.456 10.849C374.948 21.3407 378.165 37.0813 372.633 50.8487C352.141 101.838 340.847 157.554 340.847 215.999C340.847 460.746 539.254 659.153 784.001 659.153C842.446 659.153 898.162 647.859 949.151 627.367C962.919 621.835 978.659 625.052 989.151 635.544C999.643 646.036 1002.86 661.776 997.328 675.544C920.924 865.663 734.809 1000 517.228 1000C231.571 1000 0 768.429 0 482.772C0 265.191 134.337 79.0757 324.456 2.67231C338.224 -2.86042 353.964 0.357245 364.456 10.849ZM277.679 109.868C155.159 188.74 74.074 326.318 74.074 482.772C74.074 727.519 272.481 925.926 517.228 925.926C673.682 925.926 811.26 844.841 890.132 722.321C855.857 729.471 820.355 733.227 784.001 733.227C498.344 733.227 266.773 501.656 266.773 215.999C266.773 179.645 270.529 144.143 277.679 109.868Z" fill="#111827"/>
</svg>
