<svg width="1000" height="1000" viewBox="0 0 1000 1000" fill="none" xmlns="http://www.w3.org/2000/svg">
<path d="M416.667 170.455C280.687 170.455 170.455 280.687 170.455 416.667C170.455 552.646 280.687 662.877 416.667 662.877C552.646 662.877 662.877 552.646 662.877 416.667C662.877 280.687 552.646 170.455 416.667 170.455ZM79.5455 416.667C79.5455 230.48 230.48 79.5455 416.667 79.5455C602.854 79.5455 753.786 230.48 753.786 416.667C753.786 493.371 728.169 564.093 685.024 620.742L907.141 842.859C924.892 860.61 924.892 889.39 907.141 907.141C889.39 924.892 860.61 924.892 842.859 907.141L620.742 685.024C564.093 728.169 493.371 753.786 416.667 753.786C230.48 753.786 79.5455 602.854 79.5455 416.667Z" fill="#1B1850"/>
</svg>
