<svg width="1058" height="1058" viewBox="0 0 1058 1058" fill="none" xmlns="http://www.w3.org/2000/svg">
<path d="M646.556 117.556C614.093 117.556 587.778 91.2398 587.778 58.7778C587.778 26.3157 614.093 0 646.556 0H999.222C1031.68 0 1058 26.3157 1058 58.7778V411.444C1058 443.907 1031.68 470.222 999.222 470.222C966.76 470.222 940.444 443.907 940.444 411.444V200.68L453.007 688.118C430.052 711.072 392.836 711.072 369.882 688.118C346.928 665.164 346.928 627.948 369.882 604.993L857.32 117.556H646.556ZM51.6468 169.202C84.7158 136.133 129.567 117.556 176.333 117.556H411.444C443.907 117.556 470.222 143.871 470.222 176.333C470.222 208.795 443.907 235.111 411.444 235.111H176.333C160.744 235.111 145.794 241.304 134.771 252.327C123.748 263.35 117.556 278.3 117.556 293.889V881.667C117.556 897.256 123.748 912.206 134.771 923.229C145.794 934.252 160.745 940.444 176.333 940.444H764.111C779.7 940.444 794.65 934.252 805.673 923.229C816.696 912.206 822.889 897.255 822.889 881.667V646.556C822.889 614.093 849.205 587.778 881.667 587.778C914.129 587.778 940.444 614.093 940.444 646.556V881.667C940.444 928.433 921.866 973.284 888.798 1006.35C855.729 1039.42 810.878 1058 764.111 1058H176.333C129.567 1058 84.7157 1039.42 51.6468 1006.35C18.5779 973.284 0 928.433 0 881.667V293.889C0 247.122 18.5779 202.271 51.6468 169.202Z" fill="black"/>
</svg>
