<svg width="1000" height="1000" viewBox="0 0 1000 1000" fill="none" xmlns="http://www.w3.org/2000/svg">
<path d="M836.354 163.646C784.827 112.118 701.284 112.118 649.757 163.646L596.304 217.099C571.896 241.507 532.323 241.507 507.915 217.099C483.507 192.691 483.507 153.118 507.915 128.711L561.368 75.2573C661.711 -25.0858 824.4 -25.0858 924.743 75.2573C1025.09 175.6 1025.09 338.289 924.743 438.632L730.298 633.076C629.955 733.419 467.267 733.419 366.924 633.076C342.516 608.668 342.516 569.095 366.924 544.688C391.332 520.28 430.905 520.28 455.312 544.688C506.84 596.215 590.382 596.215 641.91 544.688L836.354 350.243C887.882 298.716 887.882 215.173 836.354 163.646ZM544.688 455.312C493.16 403.785 409.618 403.785 358.09 455.312L163.646 649.757C112.118 701.284 112.118 784.827 163.646 836.354C215.173 887.882 298.716 887.882 350.243 836.354L403.791 782.806C428.199 758.398 467.772 758.398 492.18 782.806C516.588 807.214 516.588 846.787 492.18 871.195L438.632 924.743C338.289 1025.09 175.6 1025.09 75.2573 924.743C-25.0858 824.4 -25.0858 661.711 75.2573 561.368L269.702 366.924C370.045 266.581 532.733 266.581 633.076 366.924C657.484 391.332 657.484 430.905 633.076 455.312C608.668 479.72 569.095 479.72 544.688 455.312Z" fill="#111827"/>
</svg>
