<svg width="1060" height="1060" viewBox="0 0 1060 1060" fill="none" xmlns="http://www.w3.org/2000/svg">
<path d="M530 83.125C411.481 83.125 297.817 130.206 214.012 214.012C130.206 297.817 83.125 411.481 83.125 530C83.125 588.684 94.6838 646.794 117.141 701.012C139.599 755.229 172.515 804.492 214.012 845.988C255.508 887.484 304.771 920.401 358.988 942.859C413.206 965.316 471.316 976.875 530 976.875C588.684 976.875 646.794 965.316 701.012 942.859C755.229 920.401 804.492 887.484 845.988 845.988C887.484 804.492 920.401 755.229 942.859 701.012C965.316 646.794 976.875 588.684 976.875 530C976.875 411.481 929.794 297.817 845.988 214.012C762.183 130.206 648.519 83.125 530 83.125ZM156.559 156.559C255.602 57.5166 389.933 1.875 530 1.875C670.067 1.875 804.398 57.5166 903.441 156.559C1002.48 255.602 1058.12 389.933 1058.12 530C1058.12 599.354 1044.46 668.03 1017.92 732.105C991.383 796.18 952.482 854.4 903.441 903.441C854.4 952.482 796.18 991.383 732.105 1017.92C668.03 1044.46 599.354 1058.12 530 1058.12C460.646 1058.12 391.97 1044.46 327.895 1017.92C263.82 991.383 205.6 952.482 156.559 903.441C107.518 854.4 68.6169 796.18 42.0761 732.105C15.5354 668.03 1.875 599.354 1.875 530C1.875 389.933 57.5166 255.602 156.559 156.559ZM716.113 375.067C734.37 388.108 738.599 413.48 725.558 431.738L522.433 716.113C515.492 725.83 504.627 732.002 492.726 732.987C480.825 733.972 469.093 729.67 460.649 721.226L338.774 599.351C322.909 583.486 322.909 557.764 338.774 541.899C354.639 526.034 380.361 526.034 396.226 541.899L484.191 629.864L659.442 384.512C672.483 366.255 697.855 362.026 716.113 375.067Z" fill="black"/>
<path d="M530 83.125C411.481 83.125 297.817 130.206 214.012 214.012C130.206 297.817 83.125 411.481 83.125 530C83.125 588.684 94.6838 646.794 117.141 701.012C139.599 755.229 172.515 804.492 214.012 845.988C255.508 887.484 304.771 920.401 358.988 942.859C413.206 965.316 471.316 976.875 530 976.875C588.684 976.875 646.794 965.316 701.012 942.859C755.229 920.401 804.492 887.484 845.988 845.988C887.484 804.492 920.401 755.229 942.859 701.012C965.316 646.794 976.875 588.684 976.875 530C976.875 411.481 929.794 297.817 845.988 214.012C762.183 130.206 648.519 83.125 530 83.125ZM156.559 156.559C255.602 57.5166 389.933 1.875 530 1.875C670.067 1.875 804.398 57.5166 903.441 156.559C1002.48 255.602 1058.12 389.933 1058.12 530C1058.12 599.354 1044.46 668.03 1017.92 732.105C991.383 796.18 952.482 854.4 903.441 903.441C854.4 952.482 796.18 991.383 732.105 1017.92C668.03 1044.46 599.354 1058.12 530 1058.12C460.646 1058.12 391.97 1044.46 327.895 1017.92C263.82 991.383 205.6 952.482 156.559 903.441C107.518 854.4 68.6169 796.18 42.0761 732.105C15.5354 668.03 1.875 599.354 1.875 530C1.875 389.933 57.5166 255.602 156.559 156.559ZM716.113 375.067C734.37 388.108 738.599 413.48 725.558 431.738L522.433 716.113C515.492 725.83 504.627 732.002 492.726 732.987C480.825 733.972 469.093 729.67 460.649 721.226L338.774 599.351C322.909 583.486 322.909 557.764 338.774 541.899C354.639 526.034 380.361 526.034 396.226 541.899L484.191 629.864L659.442 384.512C672.483 366.255 697.855 362.026 716.113 375.067Z" stroke="black" stroke-width="2" stroke-linecap="round" stroke-linejoin="round"/>
</svg>
