<svg width="1000" height="1000" viewBox="0 0 1000 1000" fill="none" xmlns="http://www.w3.org/2000/svg">
<path d="M500 0C519.044 0 534.483 15.4385 534.483 34.4828V86.2069C534.483 105.251 519.044 120.69 500 120.69C480.956 120.69 465.517 105.251 465.517 86.2069V34.4828C465.517 15.4385 480.956 0 500 0ZM146.445 146.445C159.911 132.978 181.744 132.978 195.211 146.445L231.78 183.014C245.246 196.48 245.246 218.313 231.78 231.78C218.313 245.246 196.48 245.246 183.014 231.78L146.445 195.211C132.978 181.744 132.978 159.911 146.445 146.445ZM853.555 146.445C867.022 159.911 867.022 181.744 853.555 195.211L816.986 231.78C803.52 245.246 781.687 245.246 768.22 231.78C754.754 218.313 754.754 196.48 768.22 183.014L804.789 146.445C818.256 132.978 840.089 132.978 853.555 146.445ZM500 327.586C454.273 327.586 410.419 345.751 378.085 378.085C345.751 410.419 327.586 454.273 327.586 500C327.586 545.727 345.751 589.581 378.085 621.915C410.419 654.249 454.273 672.414 500 672.414C545.727 672.414 589.581 654.249 621.915 621.915C654.249 589.581 672.414 545.727 672.414 500C672.414 454.273 654.249 410.419 621.915 378.085C589.581 345.751 545.727 327.586 500 327.586ZM329.319 329.319C374.586 284.052 435.982 258.621 500 258.621C564.018 258.621 625.414 284.052 670.681 329.319C715.948 374.586 741.379 435.982 741.379 500C741.379 564.018 715.948 625.414 670.681 670.681C625.414 715.948 564.018 741.379 500 741.379C435.982 741.379 374.586 715.948 329.319 670.681C284.052 625.414 258.621 564.018 258.621 500C258.621 435.982 284.052 374.586 329.319 329.319ZM0 500C0 480.956 15.4385 465.517 34.4828 465.517H86.2069C105.251 465.517 120.69 480.956 120.69 500C120.69 519.044 105.251 534.483 86.2069 534.483H34.4828C15.4385 534.483 0 519.044 0 500ZM879.31 500C879.31 480.956 894.749 465.517 913.793 465.517H965.517C984.561 465.517 1000 480.956 1000 500C1000 519.044 984.561 534.483 965.517 534.483H913.793C894.749 534.483 879.31 519.044 879.31 500ZM231.78 768.22C245.246 781.687 245.246 803.52 231.78 816.986L195.211 853.555C181.744 867.022 159.911 867.022 146.445 853.555C132.978 840.089 132.978 818.256 146.445 804.789L183.014 768.22C196.48 754.754 218.313 754.754 231.78 768.22ZM768.22 768.22C781.687 754.754 803.52 754.754 816.986 768.22L853.555 804.789C867.022 818.256 867.022 840.089 853.555 853.555C840.089 867.022 818.256 867.022 804.789 853.555L768.22 816.986C754.754 803.52 754.754 781.687 768.22 768.22ZM500 879.31C519.044 879.31 534.483 894.749 534.483 913.793V965.517C534.483 984.561 519.044 1000 500 1000C480.956 1000 465.517 984.561 465.517 965.517V913.793C465.517 894.749 480.956 879.31 500 879.31Z" fill="black"/>
</svg>
