<svg width="1000" height="1000" viewBox="0 0 1000 1000" fill="none" xmlns="http://www.w3.org/2000/svg">
<path fill-rule="evenodd" clip-rule="evenodd" d="M500 96.7742C393.058 96.7742 290.496 139.257 214.876 214.876C139.257 290.496 96.7742 393.058 96.7742 500C96.7742 552.952 107.204 605.386 127.468 654.308C147.732 703.229 177.433 747.681 214.876 785.124C252.319 822.567 296.771 852.268 345.692 872.532C394.614 892.796 447.048 903.226 500 903.226C552.952 903.226 605.386 892.796 654.308 872.532C703.229 852.268 747.681 822.567 785.124 785.124C822.567 747.681 852.268 703.229 872.532 654.308C892.796 605.386 903.226 552.952 903.226 500C903.226 393.058 860.743 290.496 785.124 214.876C709.504 139.257 606.942 96.7742 500 96.7742ZM146.447 146.447C240.215 52.6784 367.392 0 500 0C632.608 0 759.785 52.6784 853.553 146.447C947.322 240.215 1000 367.392 1000 500C1000 565.661 987.067 630.679 961.94 691.342C936.812 752.005 899.983 807.124 853.553 853.553C807.124 899.983 752.005 936.812 691.342 961.94C630.679 987.067 565.661 1000 500 1000C434.339 1000 369.321 987.067 308.658 961.94C247.995 936.812 192.876 899.983 146.447 853.553C100.017 807.124 63.1876 752.005 38.0602 691.342C12.9329 630.679 0 565.661 0 500C3.84546e-06 367.392 52.6784 240.215 146.447 146.447ZM451.613 311.828C451.613 285.105 473.277 263.441 500 263.441H500.401C527.125 263.441 548.789 285.105 548.789 311.828V312.229C548.789 338.953 527.125 360.616 500.401 360.616H500C473.277 360.616 451.613 338.953 451.613 312.229V311.828ZM466.27 510.608L435.299 634.667C431.311 650.619 431.97 667.415 437.214 682.999C442.461 698.595 452.072 712.359 464.906 722.657C477.74 732.956 493.259 739.357 509.621 741.103C525.984 742.848 542.503 739.863 557.22 732.503L559.693 731.239C583.478 719.056 592.884 689.899 580.701 666.114C571.509 648.166 552.651 638.406 533.73 639.93L564.71 515.835C568.679 499.88 568.002 483.085 562.743 467.508C557.483 451.932 547.87 438.189 535.041 427.907C522.213 417.625 506.706 411.234 490.358 409.492C474.101 407.759 457.689 410.695 443.044 417.954L441.151 418.877C417.133 430.593 407.161 459.562 418.877 483.58C427.864 502.003 447.002 512.162 466.27 510.608Z" fill="#414860"/>
</svg>
