<svg width="1136" height="1395" viewBox="0 0 1136 1395" fill="none" xmlns="http://www.w3.org/2000/svg">
<path d="M568 103.273C432.177 103.273 324.571 209.951 324.571 338.505C324.571 467.059 432.177 573.737 568 573.737C703.823 573.737 811.429 467.059 811.429 338.505C811.429 209.951 703.823 103.273 568 103.273ZM221.299 338.505C221.299 150.192 377.903 0 568 0C758.097 0 914.701 150.192 914.701 338.505C914.701 526.818 758.097 677.01 568 677.01C377.903 677.01 221.299 526.818 221.299 338.505ZM106.304 1290.91H1029.7C1003.31 1067.53 807.839 892.161 568 892.161C328.161 892.161 132.69 1067.53 106.304 1290.91ZM0 1342.55C0 1035.41 255.683 788.889 568 788.889C880.317 788.889 1136 1035.41 1136 1342.55C1136 1371.06 1112.88 1394.18 1084.36 1394.18H51.6364C23.1184 1394.18 0 1371.06 0 1342.55Z" fill="#1B1850"/>
</svg>
