<svg width="1002" height="1002" viewBox="0 0 1002 1002" fill="none" xmlns="http://www.w3.org/2000/svg">
<path d="M378.582 96.2543C409.739 -32.0849 592.261 -32.0847 623.418 96.2544C631.686 130.313 670.707 146.476 700.636 128.239C813.417 59.5208 942.479 188.583 873.761 301.364C855.524 331.293 871.687 370.314 905.746 378.582C1034.08 409.739 1034.08 592.261 905.746 623.418C871.687 631.686 855.524 670.706 873.761 700.636C942.479 813.416 813.417 942.479 700.636 873.761C670.707 855.524 631.686 871.687 623.418 905.746C592.261 1034.08 409.739 1034.08 378.582 905.746C370.314 871.687 331.294 855.524 301.364 873.761C188.584 942.479 59.5209 813.417 128.239 700.636C146.476 670.706 130.313 631.686 96.2544 623.418C-32.0847 592.261 -32.0849 409.739 96.2543 378.582C130.313 370.314 146.476 331.293 128.239 301.364C59.5208 188.583 188.583 59.5208 301.364 128.239C331.294 146.476 370.314 130.313 378.582 96.2543ZM551.291 113.765C538.491 61.0414 463.509 61.0415 450.709 113.765C430.583 196.67 335.599 236.014 262.744 191.622C216.412 163.392 163.392 216.412 191.622 262.744C236.014 335.599 196.67 430.583 113.765 450.709C61.0415 463.509 61.0414 538.491 113.765 551.291C196.67 571.417 236.014 666.401 191.622 739.256C163.392 785.587 216.412 838.608 262.744 810.378C335.599 765.986 430.583 805.33 450.709 888.235C463.509 940.959 538.491 940.959 551.291 888.235C571.417 805.33 666.401 765.986 739.256 810.378C785.587 838.608 838.608 785.588 810.378 739.256C765.986 666.401 805.33 571.417 888.235 551.291C940.959 538.491 940.959 463.509 888.235 450.709C805.33 430.583 765.986 335.599 810.378 262.744C838.608 216.412 785.588 163.392 739.256 191.622C666.401 236.014 571.417 196.67 551.291 113.765ZM501 383.481C565.904 383.481 618.518 436.096 618.518 501C618.518 565.904 565.904 618.518 501 618.518C436.096 618.518 383.481 565.904 383.481 501C383.481 436.096 436.096 383.481 501 383.481ZM309.259 501C309.259 606.895 395.105 692.741 501 692.741C606.895 692.741 692.741 606.895 692.741 501C692.741 395.105 606.895 309.259 501 309.259C395.105 309.259 309.259 395.105 309.259 501Z" fill="#1B1850"/>
</svg>
