<svg width="180" height="164" viewBox="0 0 180 164" fill="none" xmlns="http://www.w3.org/2000/svg">
<circle cx="58" cy="82" r="29" fill="#1B5D72" stroke="#262A48" stroke-width="2"/>
<circle cx="58" cy="82" r="9.9" stroke="#262A48" stroke-width="0.2"/>
<circle cx="58" cy="82" r="5.9" stroke="#262A48" stroke-width="0.2"/>
<circle cx="58" cy="82" r="1.9" stroke="#262A48" stroke-width="0.2"/>
<circle cx="58" cy="82" r="25.9" stroke="#262A48" stroke-width="0.2"/>
<circle cx="58" cy="82" r="21.9" stroke="#262A48" stroke-width="0.2"/>
<circle cx="58" cy="82" r="17.9" stroke="#262A48" stroke-width="0.2"/>
<circle cx="58" cy="82" r="13.9" stroke="#262A48" stroke-width="0.2"/>
<path d="M50.6182 53.3608L51.6142 53.1118L54.6022 67.8027L50.6182 53.3608Z" fill="black" stroke="black"/>
<circle cx="118" cy="82" r="29" transform="rotate(-180 118 82)" fill="#1B5D72" stroke="#262A48" stroke-width="2"/>
<circle cx="118" cy="82" r="9.9" transform="rotate(-180 118 82)" stroke="#262A48" stroke-width="0.2"/>
<circle cx="118" cy="82" r="5.9" transform="rotate(-180 118 82)" stroke="#262A48" stroke-width="0.2"/>
<circle cx="118" cy="82" r="1.9" transform="rotate(-180 118 82)" stroke="#262A48" stroke-width="0.2"/>
<circle cx="118" cy="82" r="25.9" transform="rotate(-180 118 82)" stroke="#262A48" stroke-width="0.2"/>
<circle cx="118" cy="82" r="21.9" transform="rotate(-180 118 82)" stroke="#262A48" stroke-width="0.2"/>
<circle cx="118" cy="82" r="17.9" transform="rotate(-180 118 82)" stroke="#262A48" stroke-width="0.2"/>
<circle cx="118" cy="82" r="13.9" transform="rotate(-180 118 82)" stroke="#262A48" stroke-width="0.2"/>
<path d="M125.382 110.639L124.386 110.888L121.398 96.1973L125.382 110.639Z" fill="black" stroke="black"/>
<circle r="29" transform="matrix(-1 0 0 1 88 30)" fill="#1B5D72" stroke="#262A48" stroke-width="2"/>
<circle r="9.9" transform="matrix(-1 0 0 1 88 30)" stroke="#262A48" stroke-width="0.2"/>
<circle r="5.9" transform="matrix(-1 0 0 1 88 30)" stroke="#262A48" stroke-width="0.2"/>
<circle r="1.9" transform="matrix(-1 0 0 1 88 30)" stroke="#262A48" stroke-width="0.2"/>
<circle r="25.9" transform="matrix(-1 0 0 1 88 30)" stroke="#262A48" stroke-width="0.2"/>
<circle r="21.9" transform="matrix(-1 0 0 1 88 30)" stroke="#262A48" stroke-width="0.2"/>
<circle cx="30" cy="134" r="29" fill="#1B5D72" stroke="#262A48" stroke-width="2"/>
<circle cx="30" cy="134" r="9.9" stroke="#262A48" stroke-width="0.2"/>
<circle cx="30" cy="134" r="5.9" stroke="#262A48" stroke-width="0.2"/>
<circle cx="30" cy="134" r="1.9" stroke="#262A48" stroke-width="0.2"/>
<circle cx="30" cy="134" r="25.9" stroke="#262A48" stroke-width="0.2"/>
<circle cx="30" cy="134" r="21.9" stroke="#262A48" stroke-width="0.2"/>
<circle cx="30" cy="134" r="17.9" stroke="#262A48" stroke-width="0.2"/>
<circle cx="30" cy="134" r="13.9" stroke="#262A48" stroke-width="0.2"/>
<path d="M22.6182 105.361L23.6142 105.112L26.6022 119.803L22.6182 105.361Z" fill="black" stroke="black"/>
<circle cx="90" cy="134" r="29" transform="rotate(-180 90 134)" fill="#1B5D72" stroke="#262A48" stroke-width="2"/>
<circle cx="90" cy="134" r="9.9" transform="rotate(-180 90 134)" stroke="#262A48" stroke-width="0.2"/>
<circle cx="90" cy="134" r="5.9" transform="rotate(-180 90 134)" stroke="#262A48" stroke-width="0.2"/>
<circle cx="90" cy="134" r="1.9" transform="rotate(-180 90 134)" stroke="#262A48" stroke-width="0.2"/>
<circle cx="90" cy="134" r="25.9" transform="rotate(-180 90 134)" stroke="#262A48" stroke-width="0.2"/>
<circle cx="90" cy="134" r="21.9" transform="rotate(-180 90 134)" stroke="#262A48" stroke-width="0.2"/>
<circle cx="90" cy="134" r="17.9" transform="rotate(-180 90 134)" stroke="#262A48" stroke-width="0.2"/>
<circle cx="90" cy="134" r="13.9" transform="rotate(-180 90 134)" stroke="#262A48" stroke-width="0.2"/>
<path d="M97.3818 162.639L96.3858 162.888L93.3978 148.197L97.3818 162.639Z" fill="black" stroke="black"/>
<circle r="17.9" transform="matrix(-1 0 0 1 88 30)" stroke="#262A48" stroke-width="0.2"/>
<circle r="13.9" transform="matrix(-1 0 0 1 88 30)" stroke="#262A48" stroke-width="0.2"/>
<path d="M95.3818 1.36083L94.3858 1.11184L91.3978 15.8027L95.3818 1.36083Z" fill="black" stroke="black"/>
<circle r="29" transform="matrix(-1 0 0 1 150 134)" fill="#1B5D72" stroke="#262A48" stroke-width="2"/>
<circle r="9.9" transform="matrix(-1 0 0 1 150 134)" stroke="#262A48" stroke-width="0.2"/>
<circle r="5.9" transform="matrix(-1 0 0 1 150 134)" stroke="#262A48" stroke-width="0.2"/>
<circle r="1.9" transform="matrix(-1 0 0 1 150 134)" stroke="#262A48" stroke-width="0.2"/>
<circle r="25.9" transform="matrix(-1 0 0 1 150 134)" stroke="#262A48" stroke-width="0.2"/>
<circle r="21.9" transform="matrix(-1 0 0 1 150 134)" stroke="#262A48" stroke-width="0.2"/>
<circle r="17.9" transform="matrix(-1 0 0 1 150 134)" stroke="#262A48" stroke-width="0.2"/>
<circle r="13.9" transform="matrix(-1 0 0 1 150 134)" stroke="#262A48" stroke-width="0.2"/>
<path d="M157.382 105.361L156.386 105.112L153.398 119.803L157.382 105.361Z" fill="black" stroke="black"/>
</svg>
